<?xml version="1.0" standalone="no"?><!DOCTYPE svg PUBLIC "-//W3C//DTD SVG 1.1//EN" "http://www.w3.org/Graphics/SVG/1.1/DTD/svg11.dtd"><svg t="1611910393346" class="icon" viewBox="0 0 1058 1024" version="1.1" xmlns="http://www.w3.org/2000/svg" p-id="2173" xmlns:xlink="http://www.w3.org/1999/xlink" width="99.1875" height="96"><defs><style type="text/css"></style></defs><path d="M491.794899 419.908725h111.746578v-78.621208h-111.746578v78.621208zM164.939597 558.320537V281.771812h543.201074v316.134228a163.152752 163.152752 0 0 1 82.469799-26.802684V199.302013H600.105235V82.469799h293.867382v473.376644c0-12.920268 82.469799-19.792752 82.469799-19.792752V0H517.635436v199.302013H82.469799V536.053691s82.469799 6.047785 82.469798 22.266846z m326.855302 3.573691h111.746578v-78.621208h-111.746578v78.621208z m-229.12859 0h111.746577v-78.621208h-111.609128v78.621208z m0-141.985503h111.746577v-78.621208h-111.609128v78.621208z" p-id="2174" fill="#ffffff"></path><path d="M975.617718 577.288591v364.24161H82.469799V577.288591H0v446.711409h1058.087517V577.288591h-82.469799z" p-id="2175" fill="#ffffff"></path><path d="M186.381745 900.295302l53.33047-41.234899a38.623356 38.623356 0 0 1 46.457986 0l41.2349 30.926174a121.368054 121.368054 0 0 0 146.108993 0l41.234899-30.926174a38.623356 38.623356 0 0 1 46.457987 0l41.234899 30.926174a121.368054 121.368054 0 0 0 146.108993 0l41.2349-30.926174a38.623356 38.623356 0 0 1 46.457986 0l41.2349 30.926174a41.248644 41.248644 0 1 0 49.894228-65.700939l-41.234899-30.926175a121.368054 121.368054 0 0 0-146.108994 0l-41.234899 30.926175a38.623356 38.623356 0 0 1-46.457987 0l-41.234899-30.926175a121.368054 121.368054 0 0 0-146.108993 0l-41.2349 30.926175a38.623356 38.623356 0 0 1-46.457986 0l-41.234899-30.926175a121.368054 121.368054 0 0 0-146.108994 0l-53.742819 40.547651a41.606013 41.606013 0 0 0 50.169128 66.388188z" p-id="2176" fill="#ffffff"></path><path d="M186.381745 742.365638l53.33047-40.410202a38.623356 38.623356 0 0 1 46.457986 0l41.2349 30.926175a121.368054 121.368054 0 0 0 146.108993 0l41.234899-30.926175a38.623356 38.623356 0 0 1 46.457987 0l41.234899 30.926175a121.368054 121.368054 0 0 0 146.108993 0l41.2349-30.926175a38.623356 38.623356 0 0 1 46.457986 0l41.2349 30.926175a41.248644 41.248644 0 1 0 49.894228-65.70094l-41.234899-30.926174a121.368054 121.368054 0 0 0-146.108994 0l-41.234899 30.926174a38.623356 38.623356 0 0 1-46.457987 0l-41.234899-30.926174a121.368054 121.368054 0 0 0-146.108993 0l-41.2349 30.926174a38.623356 38.623356 0 0 1-46.457986 0l-41.234899-30.926174a121.368054 121.368054 0 0 0-146.108994 0l-53.742819 40.410201a41.331114 41.331114 0 0 0 50.169128 65.70094z" p-id="2177" fill="#ffffff"></path></svg>