<?xml version="1.0" standalone="no"?><!DOCTYPE svg PUBLIC "-//W3C//DTD SVG 1.1//EN" "http://www.w3.org/Graphics/SVG/1.1/DTD/svg11.dtd"><svg t="1611910658226" class="icon" viewBox="0 0 1024 1024" version="1.1" xmlns="http://www.w3.org/2000/svg" p-id="5160" xmlns:xlink="http://www.w3.org/1999/xlink" width="96" height="96"><defs><style type="text/css"></style></defs><path d="M894.506667 687.786667a108.586667 108.586667 0 0 0-89.6-45.013334c-53.546667 0-69.546667 23.253333-81.066667 40.32-9.173333 13.44-14.72 21.333333-45.866667 21.333334A68.906667 68.906667 0 0 1 618.666667 679.68a111.36 111.36 0 0 0-88.96-36.906667 110.933333 110.933333 0 0 0-88.96 36.906667A69.546667 69.546667 0 0 1 381.653333 704c-34.346667 0-39.466667-6.186667-48.64-17.493333a114.986667 114.986667 0 0 0-73.173333-43.733334c-98.56-24.106667-168.32 87.253333-170.666667 92.16l36.266667 22.4c0-1.066667 56.533333-90.026667 125.013333-73.173333a75.52 75.52 0 0 1 50.133334 29.226667c15.36 18.986667 30.933333 33.28 81.706666 33.28a110.506667 110.506667 0 0 0 88.96-36.906667 69.546667 69.546667 0 0 1 59.306667-24.96 69.12 69.12 0 0 1 59.093333 24.96A110.933333 110.933333 0 0 0 677.973333 746.666667c53.546667 0 69.546667-23.253333 81.066667-40.32 9.173333-13.44 14.933333-21.333333 45.866667-21.333334a66.346667 66.346667 0 0 1 57.813333 30.72A129.92 129.92 0 0 0 974.293333 768v-42.666667a89.813333 89.813333 0 0 1-79.786666-37.546666z" p-id="5161" fill="#ffffff"></path><path d="M894.506667 794.453333a108.586667 108.586667 0 0 0-89.6-45.013333c-53.546667 0-69.546667 23.253333-81.066667 40.32-9.173333 13.44-14.72 21.333333-45.866667 21.333333A68.906667 68.906667 0 0 1 618.666667 786.346667a111.36 111.36 0 0 0-88.96-36.906667 110.933333 110.933333 0 0 0-88.96 36.906667A69.546667 69.546667 0 0 1 381.653333 810.666667c-34.346667 0-39.466667-6.186667-48.64-17.493334a114.986667 114.986667 0 0 0-73.173333-43.733333c-98.56-24.106667-168.32 87.253333-170.666667 92.16l36.266667 22.4c0-1.066667 56.533333-90.026667 125.013333-73.173333a75.52 75.52 0 0 1 50.133334 29.226666c15.36 18.986667 30.933333 33.28 81.706666 33.28a110.506667 110.506667 0 0 0 88.96-36.906666 69.546667 69.546667 0 0 1 59.306667-24.96 69.12 69.12 0 0 1 59.093333 24.96A110.933333 110.933333 0 0 0 677.973333 853.333333c53.546667 0 69.546667-23.253333 81.066667-40.32 9.173333-13.44 14.933333-21.333333 45.866667-21.333333a66.346667 66.346667 0 0 1 57.813333 30.72A129.92 129.92 0 0 0 974.293333 874.666667v-42.666667a89.813333 89.813333 0 0 1-79.786666-37.546667z" p-id="5162" fill="#ffffff"></path><path d="M894.506667 901.12a108.586667 108.586667 0 0 0-89.6-45.013333c-53.546667 0-69.546667 23.253333-81.066667 40.32-9.173333 13.44-14.72 21.333333-45.866667 21.333333A68.906667 68.906667 0 0 1 618.666667 893.013333a111.36 111.36 0 0 0-88.96-36.906666 110.933333 110.933333 0 0 0-88.96 36.906666A69.546667 69.546667 0 0 1 381.653333 917.333333c-34.346667 0-39.466667-6.186667-48.64-17.493333a114.986667 114.986667 0 0 0-73.173333-43.733333c-98.56-24.106667-168.32 87.253333-170.666667 92.16l36.266667 22.4c0-1.066667 56.533333-90.026667 125.013333-73.173334a75.52 75.52 0 0 1 50.133334 29.226667c15.36 18.986667 30.933333 33.28 81.706666 33.28a110.506667 110.506667 0 0 0 88.96-36.906667 69.546667 69.546667 0 0 1 59.306667-24.96 69.12 69.12 0 0 1 59.093333 24.96A110.933333 110.933333 0 0 0 677.973333 960c53.546667 0 69.546667-23.253333 81.066667-40.32 9.173333-13.44 14.933333-21.333333 45.866667-21.333333a66.346667 66.346667 0 0 1 57.813333 30.72A129.92 129.92 0 0 0 974.293333 981.333333v-42.666666a89.813333 89.813333 0 0 1-79.786666-37.546667zM956.8 234.666667h-12.586667l-341.333333-192H533.333333v298.666666h21.333334a25.173333 25.173333 0 1 1-21.333334 24.96h-42.666666a64 64 0 1 0 128 0 67.84 67.84 0 0 0-42.666667-64V181.12l170.666667 273.066667V576H426.666667v-170.666667H64l160 213.333334H981.333333V384zM245.333333 576L149.333333 448h234.666667v128zM576 85.333333h15.786667l285.44 160.426667L768 408.746667 576 100.48z m213.333333 490.666667v-106.666667h149.333334v106.666667z m18.56-149.333333l99.626667-149.333334h13.013333l18.133334 108.373334V426.666667z" p-id="5163" fill="#ffffff"></path></svg>