<?xml version="1.0" standalone="no"?><!DOCTYPE svg PUBLIC "-//W3C//DTD SVG 1.1//EN" "http://www.w3.org/Graphics/SVG/1.1/DTD/svg11.dtd"><svg t="1611910723022" class="icon" viewBox="0 0 1024 1024" version="1.1" xmlns="http://www.w3.org/2000/svg" p-id="5855" xmlns:xlink="http://www.w3.org/1999/xlink" width="96" height="96"><defs><style type="text/css"></style></defs><path d="M507.239068 955.700451c-31.355125 0-91.114161-13.707187-148.227949-43.798529-47.628764-25.093515-110.044302-70.239737-136.915299-142.794194l-1.054005-2.847861-2.928702-0.799202c-28.086685-7.659447-56.630788-23.816428-78.3126-44.326555-17.162892-16.23373-37.622876-42.47437-37.622876-75.275427 0-52.216245 27.922956-95.261621 71.1382-109.665679l4.036943-1.344624 0-9.268084c0-7.584746 3.478218-11.059893 8.292873-15.868409l1.731434-1.729387 0-2.447748c0-9.594519 0-18.655895 4.38896-27.428699l0.624217-1.24741 0-8.852622-1.729387-1.729387c-2.187829-2.187829-4.882194-4.881171-6.593162-7.220449 24.354688-7.873318 129.777739-37.829584 323.170331-37.829584 193.393615 0 298.81462 29.956266 323.171354 37.830607-1.711991 2.340301-4.40431 5.03262-6.590092 7.219425l-10.078543 10.078543 13.389962 0c0.167822 2.703575 1.058099 5.747911 2.074242 9.217942 1.360997 4.650927 2.90312 9.923 2.90312 14.948457l0 2.445702 1.728364 1.728364c4.820796 4.818749 8.296967 8.295943 8.296967 15.871479l0 9.268084 4.036943 1.345648c44.721551 14.904455 70.685899 59.725266 66.146513 114.187669l-0.020466 0.243547 0 0.245593c0 23.724331-13.381775 49.810453-37.679158 73.452919-22.181185 21.583574-51.432393 38.83447-78.249155 46.149063l-2.926656 0.799202-1.055029 2.847861C765.514389 841.662185 703.096804 886.808408 655.467017 911.901922 598.352205 941.993265 538.592147 955.700451 507.239068 955.700451zM281.073048 732.781382c31.512714 115.046223 186.29187 164.55787 231.179197 164.55787 25.988908 0 75.977415-12.942777 121.234155-37.683251 40.889269-22.353101 93.16589-62.549591 110.005416-127.105886l0.191358-0.731664 0-0.759293c0-11.277858 12.000312-19.153222 29.183669-19.153222 15.887852 0 47.599088-17.371646 63.146179-38.946011 8.213056-11.395538 10.933003-22.793122 7.898901-33.032324-0.197498-15.930831-5.503341-26.538423-10.637268-36.801161l-3.664459-7.323802-5.789866 5.789866c-4.120854 4.120854-12.616342 8.292873-20.88261 8.292873-17.197684 0-29.182646-12.734022-29.182646-24.162306l0-30.070876c0-10.360975 0-26.01756-5.316076-41.964764l-2.298346-6.894014-6.27696 3.662413c-53.328579 31.109532-147.697877 64.35061-252.623601 64.35061-107.805308 0-204.761524-40.431851-252.961292-64.531735l-8.544607-4.272303 0 9.552563c0 3.969405-0.986467 9.343809-2.031263 15.032368-1.396813 7.616468-2.981914 16.247033-2.981914 25.064862l0 30.070876c0 11.428284-11.980869 24.162306-29.17446 24.162306-8.268314 0-16.763802-4.170996-20.884656-8.292873l-5.79089-5.789866-3.663436 7.323802c-5.235235 10.466376-10.649548 21.288862-10.649548 37.724183 0 20.147876 21.515013 39.09439 34.340109 48.593741 17.285688 12.806677 37.379329 22.460548 46.738487 22.460548C264.608052 711.905936 276.960381 720.67567 281.073048 732.781382zM146.800949 393.023258c-3.764744-29.445636-28.992311-65.23577-51.454906-97.101525-9.435906-13.385868-18.34788-26.02984-24.068162-36.142152-7.588839-13.416568-6.461155-17.011442-6.15928-17.59575 0.24764-0.477884 1.839905-1.38044 6.095835-1.38044 204.100468 0 287.633976-70.133314 348.627119-121.342626 32.648584-27.41028 58.4359-49.060369 92.41069-49.060369 35.298947 0 65.510016 22.945595 103.756085 51.996235 65.790402 49.971112 155.89149 118.40676 337.278653 118.40676 3.072989 0 4.621251 0.381693 5.308913 0.63445-0.271176 1.367137-1.815345 5.473665-10.17371 15.161305-7.314593 8.479115-17.799388 18.948561-28.900214 30.030967-32.852222 32.800034-73.090669 72.974012-77.158311 105.7106-11.157107-3.232624-34.741245-9.31004-72.308863-15.425318-49.371454-8.036024-133.305075-17.615193-252.791423-17.615193C316.304458 359.300202 178.242032 386.263297 146.800949 393.023258zM421.147294 264.96979c0 16.733103 15.276938 34.651194 45.403073 53.258994 21.461801 13.256932 42.566468 21.99699 43.454698 22.363334l2.24718 0.926092 2.248204-0.926092c0.887206-0.36532 21.989827-9.106402 43.452651-22.363334 30.125111-18.6078 45.398979-36.525891 45.398979-53.258994l0-5.904477-5.007037 0 0-70.168106L421.147294 188.897208 421.147294 264.96979zM386.954541 710.123336c-14.277168 0-28.253484-5.789866-38.3484-15.883759-10.097986-10.103102-15.889899-24.081465-15.889899-38.353516 0-14.271028 5.791913-28.252461 15.889899-38.356586 10.095939-10.091846 24.073278-15.882736 38.3484-15.882736 14.279215 0 28.259624 5.79089 38.356586 15.884782 10.091846 10.100032 15.880689 24.078395 15.880689 38.35454 0 14.274098-5.788843 28.254507-15.882736 38.355563C415.214165 704.33347 401.235802 710.123336 386.954541 710.123336zM652.580271 710.123336c-14.277168 0-28.254507-5.789866-38.349423-15.883759-10.094916-10.099009-15.884782-24.077372-15.884782-38.353516s5.789866-28.256554 15.885805-38.356586c10.093892-10.091846 24.072255-15.882736 38.3484-15.882736 14.276145 0 28.256554 5.79089 38.352493 15.884782 10.094916 10.102079 15.885805 24.080441 15.885805 38.35454 0 14.272052-5.79089 28.252461-15.886829 38.355563C680.837848 704.33347 666.858462 710.123336 652.580271 710.123336z" p-id="5856" fill="#ffffff"></path></svg>