<?xml version="1.0" standalone="no"?>
<!DOCTYPE svg PUBLIC "-//W3C//DTD SVG 1.1//EN" "http://www.w3.org/Graphics/SVG/1.1/DTD/svg11.dtd">
<svg t="1604025661420" class="icon" viewBox="0 0 1157 1024" version="1.1"
 xmlns="http://www.w3.org/2000/svg" p-id="17625" width="28" height="28" xmlns:xlink="http://www.w3.org/1999/xlink"><defs><style type="text/css"></style></defs><path d="M989.451 655.76a33.703 33.703 0 0 0 20.213-6.678l128.223-95.721a33.48 33.48 0 0 0-2.538-55.43L376.387 33.258l-0.134-0.09a110.37 110.37 0 0 0-146.966 30.365L107.431 246.517a33.391 33.391 0 0 0 10.418 47.104l450.56 275.723a33.525 33.525 0 0 0 43.097-6.678 192.334 192.334 0 0 1 54.94-40.515c40.648-19.679 80.762-18.254 119.185 4.23 115.177 67.227 181.782 121.188 182.405 121.766 6.055 4.898 13.624 7.614 21.415 7.614z m68.386-126.575l-68.03 50.844c-28.983-21.77-87.084-63.087-170.073-111.527-59.036-34.504-123.058-36.419-185.121-5.52-19.144 9.616-36.998 21.593-53.204 35.572L182.851 254.62l102.088-153.422a43.053 43.053 0 0 1 56.187-10.685l716.666 438.672z" p-id="17626" fill="#888888"></path><path d="M704.824 801.703a33.747 33.747 0 0 0 28.137-15.093l103.29-155.96a33.391 33.391 0 0 0 2.049-33.48 33.703 33.703 0 0 0-58.28-3.428l-84.769 127.955-523.174-343.485 33.124-52.001a33.391 33.391 0 0 0 2.36-34.282 33.703 33.703 0 0 0-59.26-1.558l-50.887 79.872a33.436 33.436 0 0 0 9.928 45.99l578.96 379.95a33.703 33.703 0 0 0 18.522 5.52z" p-id="17627" fill="#888888"></path><path d="M839.591 808.693c12.02 0 23.151-6.367 29.206-16.74l57.433-98.928a33.436 33.436 0 0 0-12.466-45.634 33.792 33.792 0 0 0-45.902 12.065l-40.07 68.964-50.398-31.165a33.792 33.792 0 0 0-46.392 10.774 33.436 33.436 0 0 0 10.82 46.17l80.005 49.463a33.837 33.837 0 0 0 17.808 5.03z m-462.893-29.117c48.307 0 91.893-28.94 110.414-73.417a118.517 118.517 0 0 0-25.911-129.602 119.897 119.897 0 0 0-130.226-25.779 118.918 118.918 0 0 0-73.773 109.88 119.318 119.318 0 0 0 119.496 118.918z m0-170.741c28.761 0 52.09 23.196 52.09 51.823 0 28.672-23.329 51.868-52.09 51.868-28.76 0-52.09-23.196-52.09-51.868 0-28.627 23.33-51.823 52.09-51.823z" p-id="17628" fill="#888888"></path><path d="M395.798 660.213a22.84 22.84 0 1 1-22.928-22.795c12.688 0 22.973 10.195 22.973 22.795z" p-id="17629" fill="#888888"></path><path d="M39.001 869.153h278.394a121.678 121.678 0 0 0 121.411-130.582 33.837 33.837 0 0 0-44.789-29.073 52.269 52.269 0 0 1-47.282-6.455 51.779 51.779 0 0 1-22.127-42.073v-0.802a33.614 33.614 0 0 0-33.703-33.569H39.001a33.614 33.614 0 0 0-33.703 33.57v175.415c0 18.566 15.093 33.57 33.703 33.57z m323.139-90.379a54.495 54.495 0 0 1-44.745 23.33H72.704V693.738h189.217a119.63 119.63 0 0 0 100.219 85.036z" p-id="17630" fill="#888888"></path><path d="M39.001 985.444a33.614 33.614 0 0 0 33.703-33.57v-398.78a33.614 33.614 0 0 0-33.703-33.57 33.614 33.614 0 0 0-33.703 33.57v398.78c0 18.566 15.093 33.57 33.703 33.57z" p-id="17631" fill="#888888"></path></svg>