<?xml version="1.0" standalone="no"?><!DOCTYPE svg PUBLIC "-//W3C//DTD SVG 1.1//EN" "http://www.w3.org/Graphics/SVG/1.1/DTD/svg11.dtd"><svg t="1604024056272" class="icon" viewBox="0 0 1024 1024" version="1.1" xmlns="http://www.w3.org/2000/svg" p-id="4845" xmlns:xlink="http://www.w3.org/1999/xlink" width="200" height="200"><defs><style type="text/css"></style></defs><path d="M912.014977 1001.606007C797.912249 1061.323322 657.150006 982.411155 641.154297 853.379099c-3.199142-25.593135-2.132761-51.18627 6.398283-74.646644 4.265523-10.663806 1.066381-17.06209-6.398283-25.593136C516.387763 629.439166 392.687609 505.739013 268.987456 382.038859c-8.531045-8.531045-14.929329-9.597426-26.659516-6.398283C136.756257 405.499233 25.852672 338.317253 4.525059 230.61281c-8.531045-39.456083-5.331903-79.978547 12.796568-117.30187 8.531045-1.066381 10.663806 5.331903 13.862948 9.597426l108.770824 108.770824c30.925038 29.858658 68.24836 31.991419 94.907877 5.331903s25.593135-65.049219-4.265523-94.907876C192.20805 100.514372 151.685586 61.058289 109.030361 18.403064 168.747676-6.123691 225.26585-7.190071 280.717643 21.602206c78.912167 41.588845 119.434631 134.36396 94.907876 219.67441-4.265523 12.796568-1.066381 20.261232 7.464664 28.792277l367.901319 367.901318c9.597426 9.597426 18.128471 10.663806 30.925038 7.464665 74.646644-18.128471 139.695863 1.066381 190.882133 57.584554 49.053509 54.385412 62.916457 118.36825 38.389703 188.749372-5.331903 14.929329-8.531045 21.327613-23.460374 6.398283-36.256941-37.323322-73.580264-74.646644-110.903586-110.903585-19.194851-19.194851-42.655225-26.659516-69.314741-17.06209-23.460374 8.531045-37.323322 26.659516-40.522464 51.18627-3.199142 24.526755 7.464664 42.655225 24.526755 59.717315 40.522464 39.456083 79.978547 78.912167 120.501011 120.501012z" p-id="4846" fill="#ffffff"></path><path d="M1.325917 922.69384c-3.199142-24.526755 7.464664-45.854367 25.593135-63.982838 101.30616-101.30616 203.678701-202.61232 304.984861-304.984861 7.464664-7.464664 11.730187-8.531045 19.194852-1.06638 38.389703 39.456083 77.845786 77.845786 117.301869 117.301869 7.464664 7.464664 7.464664 11.730187 0 19.194851-102.372541 101.30616-202.61232 203.678701-306.051241 303.918481-50.11989 49.053509-124.766534 35.190561-153.558811-24.526755-6.398284-13.862948-7.464664-17.06209-7.464665-45.854367zM647.55258 441.756175c-3.199142-3.199142-7.464664-5.331903-9.597425-8.531045-15.995709-15.995709-30.925038-31.991419-47.987129-46.920748-9.597426-8.531045-7.464664-13.862948 1.066381-22.393993 37.323322-37.323322 73.580264-75.713025 113.036347-111.969967 29.858658-28.792277 56.518174-59.717315 71.447502-98.107018 22.393993-61.850077 62.916457-103.438921 124.766534-125.832915C919.479642 20.535825 938.674493 2.407354 955.736583 3.473735c18.128471 1.066381 28.792277 27.725896 45.854367 39.456083 20.261232 14.929329 22.393993 28.792277 8.531045 51.186271-19.194851 29.858658-34.12418 62.916457-49.053509 94.907876-5.331903 11.730187-12.796568 19.194851-24.526754 24.526754-86.376831 35.190561-157.824334 90.642354-218.60803 159.957095-18.128471 20.261232-38.389703 39.456083-58.650935 58.650935-5.331903 3.199142-8.531045 6.398284-11.730187 9.597426z" p-id="4847" fill="#ffffff"></path></svg>