<?xml version="1.0" standalone="no"?><!DOCTYPE svg PUBLIC "-//W3C//DTD SVG 1.1//EN" "http://www.w3.org/Graphics/SVG/1.1/DTD/svg11.dtd"><svg t="1602756097751" class="icon" viewBox="0 0 1024 1024" version="1.1" xmlns="http://www.w3.org/2000/svg" p-id="15518" xmlns:xlink="http://www.w3.org/1999/xlink" width="200" height="200"><defs><style type="text/css"></style></defs><path d="M153.8 959h-33.7c-8.7 0-16.9-3.7-23-10.5-5.8-6.4-8.9-14.5-8.9-23.2V192.4c-22.4-17.4-33.7-41.6-33.7-72 0-24.4 7.9-45.6 23.6-63 16-17.8 35.8-26.8 58.8-26.8s42.8 9 58.9 26.8c15.6 17.3 23.6 38.5 23.6 63 0 30.4-11.3 54.6-33.7 72v732.9c0 8.7-3.1 16.7-8.9 23.2-6.1 6.8-14.3 10.5-23 10.5zM137 50.5c-17.1 0-31.9 6.8-44 20.2-12.2 13.6-18.4 30.3-18.4 49.6 0 25.7 9.6 45 29.4 58.8l4.3 3v743.2c0 3.8 1.2 7 3.7 9.8 2.4 2.6 5 3.9 8.1 3.9h33.7c3.1 0 5.8-1.3 8.1-3.9 2.5-2.8 3.7-6 3.7-9.8V182.1l4.3-3c19.8-13.8 29.4-33 29.4-58.8 0-19.4-6.2-36-18.4-49.6-12-13.4-26.8-20.2-43.9-20.2z" fill="#ffffff" p-id="15519"></path><path d="M238.2 724.7c-10.7 0-19.9-4.3-27.5-12.8-7.4-8.3-11.2-18.2-11.2-29.6V248c0-13.7 6.2-26.2 18-36l0.5-0.4c7.4-5.4 21.2-13.8 42.1-25.4 83.4-47 158.9-70.9 224.4-70.9 37.9 0 73.9 5.8 107 17.2 33.3 11.6 72.4 29 116.1 51.7l0.2 0.1c12.6 7 27.4 10.5 43.9 10.5 18.4 0 38.7-4 60.2-11.9 22.2-8.2 41.4-17.2 57-27 17.5-10.9 32.7-19.9 46.6-27.6 20.2-11.4 27.2-12.9 31.1-12.9 10.6 0 19.9 4.3 27.4 12.7 7.6 8.2 11.4 18.1 11.4 29.6v446.5c0 10.8-2.5 19.4-7.6 25.6l-0.1 0.1c-4.8 5.8-12.1 11.4-22.2 17.3-76.1 45.5-142.4 68.5-197.1 68.5-22 0-44.5-4.5-66.9-13.2-22-8.6-41.5-18.2-58-28.5-15.8-9.9-36-19.2-59.9-27.6-23.7-8.4-48.4-12.6-73.5-12.6-66.4 0-147.8 28.5-242 84.7-6.9 4.2-13.4 6.2-19.9 6.2zM230 227.6c-7.1 6-10.5 12.7-10.5 20.4v434.3c0 6.3 2 11.6 6.2 16.2 3.8 4.3 7.6 6.2 12.5 6.2 2.9 0 6.1-1.1 9.8-3.2 97.3-58 182.1-87.5 252.1-87.5 27.3 0 54.3 4.6 80.1 13.7 25.3 8.9 46.8 18.8 63.9 29.5 15.4 9.6 33.8 18.6 54.7 26.8 20.1 7.9 40.2 11.9 59.7 11.9 51 0 113.9-22.1 186.9-65.7l0.1-0.1c7.9-4.6 13.6-8.9 16.9-12.8 2-2.4 3-7 3-12.9V157.9c0-6.5-1.9-11.6-6.1-16.1l-0.3-0.3c-3.6-4.1-7.4-6-12.1-6.1-1 0.2-6.4 1.7-21.7 10.3-13.6 7.6-28.6 16.4-45.8 27.1-16.8 10.5-37.2 20.1-60.7 28.8-23.8 8.7-46.3 13.2-67.1 13.2-19.8 0-37.8-4.3-53.4-12.9-42.8-22.2-81-39.2-113.3-50.5-31-10.7-64.9-16.1-100.5-16.1-62.1 0-134.3 23-214.6 68.3-19.9 11.2-32.9 19-39.8 24z m717.2-92.2c-0.1 0-0.1 0 0 0-0.1 0-0.1 0 0 0z" fill="#ffffff" p-id="15520"></path></svg>