<?xml version="1.0" standalone="no"?><!DOCTYPE svg PUBLIC "-//W3C//DTD SVG 1.1//EN" "http://www.w3.org/Graphics/SVG/1.1/DTD/svg11.dtd"><svg t="1602755676369" class="icon" viewBox="0 0 1024 1024" version="1.1" xmlns="http://www.w3.org/2000/svg" p-id="2774" xmlns:xlink="http://www.w3.org/1999/xlink" width="200" height="200"><defs><style type="text/css"></style></defs><path d="M438.1 731.2c-57.3 0-111.5-22.3-152.8-62.8-41.6-40.8-64.6-94.9-64.6-152.3 0-120.3 30.2-163.7 85-242.4 26.9-38.6 60.4-86.7 101.1-159 6.8-12.1 19.1-19.3 32.2-19 12.7 0.3 24.3 7.7 30.5 19.5 38.3 68 71 115 97.4 152.9 55.2 79.3 88.5 127.1 88.5 248.2 0 57.3-22.9 111.4-64.5 152.3-41.3 40.3-95.5 62.6-152.8 62.6z m0-558.6c-34.2 58-62.8 99.1-86.4 133.1-53 76.2-75 107.7-75 210.4 0 86.2 73.9 159.1 161.4 159.1 87.4 0 161.3-72.9 161.3-159.1 0-103.4-24.6-138.8-78.5-216.2-22.9-33-50.7-72.9-82.8-127.3z" p-id="2775" fill="#ffffff"></path><path d="M470.9 623.5c-10.8 0-19.6-8.8-19.6-19.6s8.8-19.6 19.6-19.6c19.2 0 34.9-15.6 34.9-34.8 0-10.8 8.8-19.6 19.6-19.6 7.9 0 15 4.7 18 11.9 1 2.4 1.6 5 1.6 7.7 0 40.9-33.2 74-74.1 74zM744 143.6c-0.4-2.9-4-2.5-5.5 0-49.9 88.8-72.7 79.3-72.7 145.9 0 41.2 34.5 74.6 75.5 74.6 40.9 0 75.5-33.4 75.5-74.6 0-66.6-25.9-62.7-72.8-145.9zM909.5 783.3c-15.1-6.4-32.5 0.7-38.9 15.8-16.9 39.9-56.2 66.5-100.3 66.5-44.7 0-84.3-27.2-100.9-67.9-6.2-15.2-23.5-22.5-38.6-16.3-5.5 2.2-10.3 6.1-13.6 11.1-1.6 2-3 4.2-4.1 6.7-16.9 39.9-56.1 66.4-100.3 66.4-43.7 0-82.3-26-99.5-65.1-2.4-8.6-8.5-16-17.4-19.6-15.2-6.1-32.5 1.3-38.6 16.5-16.4 40.9-56.2 68.3-101 68.3-45.2 0-85.2-27.8-101.4-69.1-6-15.3-23.2-22.8-38.4-16.8-15.3 6-22.8 23.2-16.8 38.4 25 63.9 86.8 106.8 156.6 106.8 50.7 0 97-22.7 128.3-59.5 31.2 36.9 77.6 59.5 128.3 59.5 50.8 0 97.5-22.8 128.7-60 31.2 37.1 77.8 60 128.7 60 68.2 0 128.8-41 154.9-102.7 6.4-15.2-0.7-32.6-15.7-39z" p-id="2776" fill="#ffffff"></path></svg>