<?xml version="1.0" standalone="no"?><!DOCTYPE svg PUBLIC "-//W3C//DTD SVG 1.1//EN" "http://www.w3.org/Graphics/SVG/1.1/DTD/svg11.dtd"><svg t="1602756314611" class="icon" viewBox="0 0 1024 1024" version="1.1" xmlns="http://www.w3.org/2000/svg" p-id="18244" xmlns:xlink="http://www.w3.org/1999/xlink" width="200" height="200"><defs><style type="text/css"></style></defs><path d="M960 560.59v171.92c0 11.21-3.73 18.68-7.47 29.89-7.46 7.48-11.2 15-22.4 18.69L747.2 874.53c-7.47 3.73-14.93 7.47-22.4 7.47s-14.93-3.74-22.4-7.47l-182.93-93.44s-3.74 0-3.74-3.74c0 0-3.73 0-3.73 3.74l-186.67 89.7c-7.46 3.74-14.93 7.47-22.4 7.47s-18.66-3.73-22.4-7.47L93.87 777.35c-7.47-3.73-14.94-11.21-22.4-18.68-3.74-7.48-7.47-14.95-7.47-26.16V560.59c0-11.22 3.73-18.69 7.47-29.9 7.46-7.48 14.93-15 22.4-18.69l179.2-74.75V272.81c0-11.21 3.73-18.69 7.46-26.16C288 239.17 295.47 228 306.67 228l186.66-78.49C497.07 142 508.27 142 512 142c7.47 0 14.93 0 18.67 3.74L713.6 228c7.47 7.47 18.67 11.21 22.4 18.69 7.47 7.47 7.47 18.68 7.47 26.16v164.4L922.67 512c11.2 3.74 14.93 11.21 22.4 18.69 11.2 11.21 14.93 18.68 14.93 29.9z m-657.07 63.53l164.27-71-164.27-71-164.26 71zM329.07 811l156.8-78.48V601.7L329.07 669zM512 347.56l182.93-78.49L512 190.59l-179.2 78.48z m26.13 157l156.8-67.28V328.87l-156.8 67.27z m182.94 119.56l164.26-71-164.26-71-164.27 71zM750.93 811l156.8-78.48V601.7L750.93 669z" p-id="18245" fill="#ffffff"></path></svg>