<?xml version="1.0" standalone="no"?><!DOCTYPE svg PUBLIC "-//W3C//DTD SVG 1.1//EN" "http://www.w3.org/Graphics/SVG/1.1/DTD/svg11.dtd"><svg t="1602756984011" class="icon" viewBox="0 0 1024 1024" version="1.1" xmlns="http://www.w3.org/2000/svg" p-id="29934" xmlns:xlink="http://www.w3.org/1999/xlink" width="200" height="200"><defs><style type="text/css"></style></defs><path d="M726.4 841.6H300c-13.6 0-24 10.4-24 24s10.4 24 24 24h426.4c13.6 0 24-10.4 24-24s-11.2-24-24-24zM848 134.4H176c-48.8 0-88 40-88 88v474.4c0 48.8 40 88 88 88h672c48.8 0 88-40 88-88V222.4c0-48.8-40-88-88-88z m-91.2 371.2c-16 0-31.2-8-39.2-20.8-3.2 1.6-7.2 2.4-11.2 2.4h-49.6c-9.6 0-17.6-5.6-21.6-13.6l-16.8-36-80.8 201.6c-4 8.8-12.8 15.2-22.4 15.2h-0.8c-10.4 0-19.2-7.2-22.4-16.8l-88.8-272-34.4 104c-3.2 9.6-12.8 16.8-22.4 16.8h-68c-13.6 0-24-10.4-24-24s10.4-24 24-24h51.2l52-156.8c3.2-9.6 12.8-16.8 22.4-16.8 10.4 0 19.2 6.4 22.4 16.8L517.6 560l76.8-192c3.2-8.8 12-15.2 21.6-15.2 9.6 0 18.4 4.8 22.4 13.6l33.6 72h34.4c1.6 0 4 0 5.6 0.8 7.2-17.6 24-30.4 44.8-30.4 26.4 0 48 21.6 48 48 0 27.2-21.6 48.8-48 48.8z" p-id="29935" fill="#ffffff"></path></svg>