<?xml version="1.0" standalone="no"?><!DOCTYPE svg PUBLIC "-//W3C//DTD SVG 1.1//EN" "http://www.w3.org/Graphics/SVG/1.1/DTD/svg11.dtd"><svg t="1602756928106" class="icon" viewBox="0 0 1024 1024" version="1.1" xmlns="http://www.w3.org/2000/svg" p-id="29698" xmlns:xlink="http://www.w3.org/1999/xlink" width="200" height="200"><defs><style type="text/css"></style></defs><path d="M809.901148 1022.394069a56.134588 56.134588 0 0 1-31.826632-16.935272 80.734531 80.734531 0 0 0-43.798118-26.059881 83.143427 83.143427 0 0 0-44.309096 25.694896 53.06872 53.06872 0 0 1-38.615341 16.132307 45.112062 45.112062 0 0 1-19.928144-4.014827h-0.437981l-68.17907-36.936413a51.097804 51.097804 0 0 1-18.249216-61.171372 81.172512 81.172512 0 0 0 4.671799-19.563159 51.097804 51.097804 0 0 0-51.097804-49.929855h-4.306815a45.62304 45.62304 0 0 1-42.192187-41.316224 345.494155 345.494155 0 0 1-5.985743-55.039635v-0.437982a401.044768 401.044768 0 0 1 5.547762-56.061591 45.331052 45.331052 0 0 1 42.192187-41.316224h8.102651a51.097804 51.097804 0 0 0 49.637868-52.484745 50.440833 50.440833 0 0 0-4.817793-19.125178 51.097804 51.097804 0 0 1 16.935272-59.419447l0.875962-0.437981 70.29598-38.17736a40.586256 40.586256 0 0 1 20.366125-4.452809 54.674651 54.674651 0 0 1 38.761334 15.694326 81.610493 81.610493 0 0 0 42.046193 25.110921 80.807528 80.807528 0 0 0 40.805247-24.67294l0.875962-0.437981a56.280582 56.280582 0 0 1 38.17736-14.599373 45.696036 45.696036 0 0 1 20.366125 4.014828l0.437981 0.437981 70.003992 37.812375a51.097804 51.097804 0 0 1 18.687197 59.419447 58.397491 58.397491 0 0 0-4.452809 19.563159 45.331052 45.331052 0 0 0 50.294839 46.499002h3.576847a53.360707 53.360707 0 0 1 40.805246 45.185059 460.902196 460.902196 0 0 1 7.299687 54.601654v0.437981a295.5643 295.5643 0 0 1-10.000571 58.397491 44.67408 44.67408 0 0 1-40.805246 40.95124h-3.138865a51.097804 51.097804 0 0 0-51.097805 51.097804 59.054463 59.054463 0 0 0 4.306815 19.56316 49.856858 49.856858 0 0 1-17.22726 59.419447l-1.021956 0.437981-68.982036 38.177359a53.141717 53.141717 0 0 1-21.899059 4.817793z m-77.303678-113.80211a115.408041 115.408041 0 0 1 67.303108 26.05988c6.423724 5.10978 11.679498 10.00057 16.424294 13.796407l39.491304-21.899059a136.723125 136.723125 0 0 1-4.6718-29.928714 120.371828 120.371828 0 0 1 98.545766-117.74394 188.988879 188.988879 0 0 0 0-59.419447 120.006843 120.006843 0 0 1-95.917879-116.357 128.620473 128.620473 0 0 1 4.452809-29.928714l-40.075278-21.242088a165.410893 165.410893 0 0 1-16.424294 12.555461 111.977188 111.977188 0 0 1-64.310237 24.234958h-0.875962a118.838894 118.838894 0 0 1-65.697177-24.672939c-5.693755-4.014827-11.241517-8.686627-16.570288-12.993442l-39.491303 21.899059a114.605076 114.605076 0 0 1 4.452808 29.198745 120.07984 120.07984 0 0 1-101.684631 116.794982c-1.313944 10.00057-2.116909 20.366125-2.55489 30.366695s1.313944 19.563159 2.55489 29.198745a119.349872 119.349872 0 0 1 98.545766 118.181922 101.392643 101.392643 0 0 1-4.306815 29.928714l36.936413 20.366125c5.10978-4.817793 10.803536-9.124608 16.424294-13.577416a115.554035 115.554035 0 0 1 66.865127-25.548903z m-305.272883 113.80211a752.743656 752.743656 0 0 1-299.652124-56.061591C45.696985 929.396065 0.511927 879.539207 0.511927 825.594525V228.407186C0.511927 102.487596 191.9827 0 427.397584 0s426.739664 102.195609 426.739664 228.407186v205.705161h-79.420588V358.560593A582.879954 582.879954 0 0 1 423.820738 455.062447a601.713145 601.713145 0 0 1-349.435985-94.895923v88.545195c0 56.426575 122.926718 105.480468 293.009409 116.357001l7.299687 0.875962v78.106644l-7.810665-0.437981a590.763616 590.763616 0 0 1-291.987453-83.289421v78.544625c0 56.426575 125.919589 106.35643 292.571428 115.919019l7.299687 0.437981v75.989735H366.956181a585.06986 585.06986 0 0 1-291.987453-83.435415v77.303678c0 63.872255 160.5931 118.035928 350.384944 118.035928h7.810664v78.690619zM75.187718 230.816082c0 80.29655 160.5931 148.548617 350.384945 148.548617 193.587682 0 350.384944-66.865127 350.384944-148.548617s-160.5931-149.424579-350.384944-149.424579-350.384944 68.763045-350.384945 149.424579z m545.359567 519.22669a111.977188 111.977188 0 1 1 112.050185 111.612204 112.196179 112.196179 0 0 1-112.050185-111.612204z m69.420017-0.437982a42.338181 42.338181 0 1 0 42.630168-42.046193h-0.875962a41.973196 41.973196 0 0 0-41.754206 42.11919z" p-id="29699" fill="#ffffff"></path></svg>