<?xml version="1.0" standalone="no"?><!DOCTYPE svg PUBLIC "-//W3C//DTD SVG 1.1//EN" "http://www.w3.org/Graphics/SVG/1.1/DTD/svg11.dtd"><svg t="1602809788284" class="icon" viewBox="0 0 1024 1024" version="1.1" xmlns="http://www.w3.org/2000/svg" p-id="2478" xmlns:xlink="http://www.w3.org/1999/xlink" width="200" height="200"><defs><style type="text/css"></style></defs><path d="M708.352 358.912V174.08c0-11.776-4.523-23.04-12.587-31.403a42.368 42.368 0 0 0-30.421-12.97H235.349c-23.765 0-43.008 19.84-43.008 44.373l-1.194 545.536c0 12.16 4.394 23.808 12.245 32.384a40.107 40.107 0 0 0 29.568 13.397h1.707V768H448v43.221H233.003c-46.208 0-83.67-41.002-83.67-91.605V174.08c0-49.067 38.486-88.747 86.016-88.747h429.995c47.488 0 86.016 39.723 86.016 88.747v147.37l-23.51 20.054-19.498 17.408zM533.333 765.44h0.342l-0.342 0.853v-0.853zM298.325 299.136a21.419 21.419 0 0 1-21.333-21.504c0-11.861 9.557-21.504 21.333-21.504h128c11.819 0 21.334 9.643 21.334 21.504a21.419 21.419 0 0 1-21.334 21.504h-128z m320 106.24a21.419 21.419 0 0 1-21.333 21.547H298.325a21.419 21.419 0 0 1-21.333-21.504c0-11.904 9.557-21.504 21.333-21.504h298.667c11.819 0 21.333 9.6 21.333 21.504z m-84.992 447.957v-8.106l61.696-133.718H362.027l384.426-328.106L641.664 610.56h233.003L490.24 938.667l39.339-85.334h3.754z" p-id="2479" fill="#ffffff"></path></svg>