<?xml version="1.0" standalone="no"?><!DOCTYPE svg PUBLIC "-//W3C//DTD SVG 1.1//EN" "http://www.w3.org/Graphics/SVG/1.1/DTD/svg11.dtd"><svg t="1602756418849" class="icon" viewBox="0 0 1024 1024" version="1.1" xmlns="http://www.w3.org/2000/svg" p-id="20560" xmlns:xlink="http://www.w3.org/1999/xlink" width="200" height="200"><defs><style type="text/css"></style></defs><path d="M1007.422473 830.001999c-35.027701 0-64.662589-64.662589-107.774394-64.66259s-66.013351 64.662589-129.325179 64.66259-86.888756-64.662589-129.325178-64.66259S561.517688 830.001999 511.672543 830.001999s-86.213375-64.662589-129.325179-64.66259-66.688732 64.662589-129.335412 64.66259-92.281569-64.662589-129.325179-64.66259S29.389295 830.001999 15.91238 830.001999s-27.629212-12.167086 0-43.111804c23.791822-26.687772 63.987209-64.662589 107.774393-64.66259S205.192949 786.920894 253.011952 786.920894s77.464124-64.662589 129.325179-64.66259S459.125874 786.920894 511.672543 786.920894s77.464124-64.662589 129.325179-64.66259S721.828517 786.920894 770.3229 786.920894s76.747811-64.662589 129.325179-64.66259 88.178119 47.952033 107.774394 64.66259c18.184115 15.472359 25.592837 43.081105 0 43.081105z m0-193.987769c-35.027701 0-64.662589-64.662589-107.774394-64.662589s-66.013351 64.662589-129.325179 64.662589-86.888756-64.662589-129.325178-64.662589-79.480034 64.662589-129.325179 64.662589-86.213375-64.662589-129.325179-64.662589-66.678499 64.662589-129.325179 64.662589-92.281569-64.662589-129.325179-64.662589-94.307711 64.662589-107.784626 64.662589-27.629212-12.167086 0-43.111804c23.791822-26.687772 63.987209-64.662589 107.774393-64.662589s81.506176 64.662589 129.325179 64.662589 77.464124-64.662589 129.325179-64.662589 76.747811 64.662589 129.325179 64.662589 77.464124-64.662589 129.325179-64.662589 80.841028 64.662589 129.325178 64.662589 76.747811-64.662589 129.325179-64.662589 88.178119 47.972499 107.774394 64.662589c18.194348 15.492825 25.60307 43.111804 0.010233 43.111804z m-129.325179-344.853499c-60.835432 29.33813-79.541432 84.27933-86.213375 129.325179-2.783387 18.900428-23.065276 35.815645-43.111804 0-8.98461-16.608226-36.644522-55.258424-64.662589-64.66259-31.026582-10.570732-18.961826-22.021505 0-21.550785 33.769037 0.716313 71.314066 29.358596 86.213374 43.111804 11.256346-40.420514 28.212496-80.748931 86.223608-107.774394 32.090818-15.052804 46.365911 9.915817 21.550786 21.53032z m-280.211376 21.540552c-5.116521 57.038973-32.663869 55.565416-64.66259 0-20.987968-37.596195-64.079306-76.195227-129.325179-86.213375-39.069753-6.139825-29.767918-21.683815 0-21.550785 81.987129 0 122.315545 34.710477 152.022065 68.561378 17.66223-81.48571 53.846265-161.221569 149.740097-241.039293 18.276212-15.236999 42.589919 5.812368 21.550785 21.550785-88.086022 67.69157-119.030739 149.821961-129.325178 258.69129z m-474.199145 603.524324c43.787185 0 81.506176 64.662589 129.325179 64.662589s77.464124-64.662589 129.325179-64.662589 76.747811 64.662589 129.325179 64.662589 77.464124-64.662589 129.325179-64.662589 80.841028 64.662589 129.325178 64.662589 76.747811-64.662589 129.325179-64.662589 88.178119 47.972499 107.774394 64.662589c18.184115 15.492825 25.582604 43.111804 0 43.111804-35.027701 0-64.662589-64.662589-107.774394-64.662589s-66.013351 64.662589-129.325179 64.662589-86.888756-64.662589-129.325178-64.662589-79.480034 64.662589-129.325179 64.662589-86.213375-64.662589-129.325179-64.662589-66.678499 64.662589-129.325179 64.662589-92.281569-64.662589-129.325179-64.662589-94.297478 64.662589-107.774393 64.662589-27.629212-12.167086 0-43.111804c23.791822-26.687772 63.987209-64.662589 107.774393-64.662589z" p-id="20561" fill="#ffffff"></path></svg>