<?xml version="1.0" standalone="no"?><!DOCTYPE svg PUBLIC "-//W3C//DTD SVG 1.1//EN" "http://www.w3.org/Graphics/SVG/1.1/DTD/svg11.dtd"><svg t="1603097475702" class="icon" viewBox="0 0 1448 1024" version="1.1" xmlns="http://www.w3.org/2000/svg" p-id="2145" xmlns:xlink="http://www.w3.org/1999/xlink" width="282.8125" height="200"><defs><style type="text/css"></style></defs><path d="M1267.916009 437.087855L1031.912649 926.295985c-3.612296 7.224593-8.256677 13.589115-13.761129 19.265581h2.92424c21.157736 0 38.359147 17.201411 38.359147 38.359146s-17.201411 38.359147-38.359147 38.359147h-127.806484c-21.157736 0-38.359147-17.201411-38.359147-38.359147s17.201411-38.359147 38.359147-38.359146h3.268268c-5.332437-5.676466-9.976818-12.040988-13.417101-19.265581L646.601041 437.087855c-16.857383-34.74685-21.32975-74.48211-21.329749-113.185285 0-178.894675 148.448177-323.558542 331.987233-323.558542s331.987233 144.663867 331.987233 323.558542c0 38.703175-4.472367 78.438434-21.329749 113.185285zM957.258525 162.209306c-91.683521 0.172014-165.821603 72.417941-165.993617 161.693264 0 89.103309 74.654124 161.865278 165.993617 161.865278s165.993617-72.589955 165.993617-161.865278c0-88.931295-74.48211-161.693264-165.993617-161.693264zM727.447673 983.920712c0 21.157736-17.201411 38.359147-38.359146 38.359147h-127.806484c-21.157736 0-38.359147-17.201411-38.359147-38.359147s17.201411-38.359147 38.359147-38.359146h127.806484c21.157736 0 38.359147 17.201411 38.359146 38.359146z m-370.518394 38.359147h-127.806484c-21.157736 0-38.359147-17.201411-38.359146-38.359147s17.201411-38.359147 38.359146-38.359146h127.806484c21.157736 0 38.359147 17.201411 38.359147 38.359146s-17.201411 38.359147-38.359147 38.359147z" p-id="2146" fill="#1296db"></path></svg>