<?xml version="1.0" standalone="no"?><!DOCTYPE svg PUBLIC "-//W3C//DTD SVG 1.1//EN" "http://www.w3.org/Graphics/SVG/1.1/DTD/svg11.dtd"><svg t="1603097014934" class="icon" viewBox="0 0 1024 1024" version="1.1" xmlns="http://www.w3.org/2000/svg" p-id="1330" xmlns:xlink="http://www.w3.org/1999/xlink" width="200" height="200"><defs><style type="text/css"></style></defs><path d="M511.456 836.576H117.152a17.6 17.6 0 0 1-17.472-17.472V358.048h664.64v69.344a34.4 34.4 0 1 0 68.8 0V200.704a86.4 86.4 0 0 0-86.272-86.112H616.32v-12.608c0-16.384-15.392-29.664-34.4-29.664s-34.4 13.28-34.4 29.664v12.608H315.968v-12.608c0-16.384-15.392-29.664-34.4-29.664s-34.4 13.28-34.4 29.664v12.608H117.184A86.496 86.496 0 0 0 30.88 200.704v618.24a86.464 86.464 0 0 0 86.272 86.304h394.304a34.4 34.4 0 1 0 0-68.8zM117.152 183.392h129.984v12.608c0 16.384 15.392 29.696 34.4 29.696s34.4-13.28 34.4-29.696v-12.608h231.552v12.608c0 16.384 15.392 29.696 34.4 29.696s34.4-13.28 34.4-29.696v-12.608h130.528a17.6 17.6 0 0 1 17.472 17.472v88.384H99.648V200.704a17.6 17.6 0 0 1 17.472-17.312z m679.392 331.392a218.464 218.464 0 1 0 0 436.928 218.464 218.464 0 1 0 0-436.928z m0 374.912a155.936 155.936 0 1 1 155.936-155.936 155.872 155.872 0 0 1-155.872 155.872h-0.064z m70.432-144.928l-39.2-27.808V635.52a31.296 31.296 0 0 0-62.592 0v97.824c0 10.592 5.28 19.968 13.344 25.632l0.096 0.064 52.608 37.248a29.984 29.984 0 0 0 17.92 5.952 31.104 31.104 0 0 0 25.216-13.824l0.064-0.128a31.552 31.552 0 0 0-7.328-43.52l-0.096-0.064z m-252.864-286.784l-134.336 133.248-137.632-113.6a34.368 34.368 0 0 0-48.032 3.776l-0.032 0.032-96.672 109.216a34.464 34.464 0 0 0 51.84 45.376l0.032-0.064 74.816-84.64 136 113.056c5.952 4.736 13.568 7.616 21.824 7.648 9.536-0.064 18.176-3.776 24.608-9.856h-0.032l156.192-155.712a34.304 34.304 0 0 0-24.288-58.656c-9.504 0-18.08 3.84-24.288 10.08z" p-id="1331" fill="#1296db"></path></svg>