<?xml version="1.0" standalone="no"?><!DOCTYPE svg PUBLIC "-//W3C//DTD SVG 1.1//EN" "http://www.w3.org/Graphics/SVG/1.1/DTD/svg11.dtd"><svg t="1602756245870" class="icon" viewBox="0 0 1194 1024" version="1.1" xmlns="http://www.w3.org/2000/svg" p-id="17765" xmlns:xlink="http://www.w3.org/1999/xlink" width="233.203125" height="200"><defs><style type="text/css"></style></defs><path d="M428.651 889.054H71.441c-31.751 0-51.596-11.907-63.503-43.659C3.969 837.457 0 829.52 0 821.581V71.441C0 39.69 15.876 23.815 35.72 7.939 43.66 3.969 55.567 0 63.505 0h1047.814c23.814 0 47.628 7.938 59.535 27.783 11.907 11.907 19.845 23.814 19.845 43.659 0 289.736 7.938 535.814 0 746.17 0 15.876-3.97 27.783-11.907 39.69-7.938 7.938-27.783 31.752-55.566 31.752h-234.17m238.139 0H305.612M75.411 87.318V781.89c0 19.845 0 19.845 19.845 19.845H1099.41c15.876 0 19.845-3.969 19.845-19.845V107.163c0-15.876 0-15.876-15.876-15.876-3.97-3.97-1027.97-3.97-1027.97-3.97zM889.054 1024H281.798c-19.845 0-39.69-15.876-39.69-39.69v-15.876c0-19.845 15.876-39.69 39.69-39.69h607.256c19.845 0 39.69 15.876 39.69 39.69v15.876c0 23.814-19.845 39.69-39.69 39.69z" p-id="17766" fill="#ffffff"></path><path d="M476.28 678.698h-7.939c-23.814 0-43.659-19.845-43.659-43.66v-388.96c0-23.814 19.845-43.66 43.66-43.66h7.937l381.023 198.45c15.876 7.938 23.814 23.814 23.814 43.66s-11.907 31.751-23.814 39.69L476.28 678.697z m27.782-373.086v269.892l261.954-134.946-261.954-134.946z m317.52 111.132z" p-id="17767" fill="#ffffff"></path></svg>