<?xml version="1.0" standalone="no"?><!DOCTYPE svg PUBLIC "-//W3C//DTD SVG 1.1//EN" "http://www.w3.org/Graphics/SVG/1.1/DTD/svg11.dtd"><svg t="1602755170299" class="icon" viewBox="0 0 1279 1024" version="1.1" xmlns="http://www.w3.org/2000/svg" p-id="4752" xmlns:xlink="http://www.w3.org/1999/xlink" width="249.8046875" height="200"><defs><style type="text/css"></style></defs><path d="M845.684746 895.815501q0 37.733965-26.63574 64.369705t-64.369705 26.63574-64.647161-26.63574-26.913196-64.369705 26.913196-64.647161 64.647161-26.913196 64.369705 26.913196 26.63574 64.647161zm-415.628527 0q0 37.733965-26.913196 64.369705t-64.647161 26.63574-64.369705-26.63574-26.63574-64.369705 26.63574-64.647161 64.369705-26.913196 64.647161 26.913196 26.913196 64.647161zm-430.05622-829.037409q31.629941 33.294675 61.317693 57.988226t67.144261 45.502723 75.46793 34.959409 92.115268 25.248462 110.98225 17.479704 138.727813 10.265858 168.69302 5.271657 206.704441 1.387278q77.132664 0 135.675801 2.774556t100.438936 9.156036 68.808995 15.260059 39.398699 21.918994 13.31787 28.577929-10.820769 35.51432-31.352486 42.450711-49.664557 50.496924-64.369705 57.988226-77.132664 66.034439q-102.658581 87.121066-158.704618 137.063079 16.092426-28.300474 42.450711-60.485326t52.161658-58.543137 52.439113-54.658758 46.057634-50.774379 29.965208-44.670356 7.213846-38.843788-25.248462-30.797574-64.647161-22.751361-113.201895-13.040414-168.69302-2.774556q-93.22509 1.109823-174.242133-3.329468t-142.05728-12.762959-113.479351-22.751361-88.508345-28.577929-67.976628-34.681953-50.774379-36.901598-37.733965-39.676154-28.023018-38.566332-22.19645-37.733965-20.254261-33.017219z" p-id="4753" fill="#ffffff"></path></svg>