<?xml version="1.0" standalone="no"?><!DOCTYPE svg PUBLIC "-//W3C//DTD SVG 1.1//EN" "http://www.w3.org/Graphics/SVG/1.1/DTD/svg11.dtd"><svg t="1602756888971" class="icon" viewBox="0 0 1024 1024" version="1.1" xmlns="http://www.w3.org/2000/svg" p-id="28286" xmlns:xlink="http://www.w3.org/1999/xlink" width="200" height="200"><defs><style type="text/css"></style></defs><path d="M826.5 214.2c-52.1 0-78.6 30.2-99.8 54.5-19.8 22.6-32.2 35.4-57.6 35.4s-37.2-12.1-57.5-35.4c-21.3-24.3-47.7-54.5-99.8-54.5-52 0-78.5 30.2-99.7 54.5-20.3 23.2-32.1 35.3-57.4 35.3-25.4 0-37.2-12.1-57.5-35.4-21.3-24.3-47.7-54.5-99.8-54.5s-78.5 30.2-99.8 54.5c-20.3 23.2-32.1 35.3-57.5 35.3-15.5 0-28.1 12.6-28.1 28.1 0 15.5 12.6 28.1 28.1 28.1 52.1 0 78.5-30.2 99.8-54.5 20.3-23.2 32.1-35.4 57.5-35.4s37.2 12.1 57.5 35.4c21.3 24.3 47.7 54.5 99.8 54.5 52 0 78.5-30.2 99.7-54.5 20.3-23.2 32.1-35.3 57.4-35.3 25.4 0 37.2 12.1 57.5 35.4 21.3 24.3 47.7 54.5 99.8 54.5 52.1 0 78.6-30.2 99.9-54.5 19.8-22.6 32.2-35.4 57.6-35.4s37.8 12.8 57.6 35.4c21.3 24.3 47.8 54.5 99.8 54.5 15.5 0 28.1-12.6 28.1-28.1 0-15.5-12.6-28.1-28.1-28.1-25.4 0-37.8-12.8-57.6-35.4-21.3-24.1-47.8-54.4-99.9-54.4zM826.5 439c-52.1 0-78.6 30.2-99.8 54.5-19.8 22.6-32.2 35.4-57.6 35.4s-37.2-12.1-57.5-35.4c-21.3-24.3-47.7-54.5-99.8-54.5-52 0-78.5 30.2-99.7 54.5-20.3 23.2-32.1 35.3-57.4 35.3-25.4 0-37.2-12.1-57.5-35.4-21.3-24.3-47.7-54.5-99.8-54.5s-78.5 30.2-99.8 54.5c-20.3 23.2-32.1 35.3-57.5 35.3-15.5 0-28.1 12.6-28.1 28.1 0 15.5 12.6 28.1 28.1 28.1 52.1 0 78.5-30.2 99.8-54.5 20.3-23.2 32.1-35.4 57.5-35.4s37.2 12.1 57.5 35.4c21.3 24.3 47.7 54.5 99.8 54.5 52 0 78.5-30.2 99.7-54.5 20.3-23.2 32.1-35.3 57.4-35.3 25.4 0 37.2 12.1 57.5 35.4 21.3 24.3 47.7 54.5 99.8 54.5 52.1 0 78.6-30.2 99.9-54.5 19.8-22.6 32.2-35.4 57.6-35.4s37.8 12.8 57.6 35.4C905.5 554.8 932 585 984 585c15.5 0 28.1-12.6 28.1-28.1 0-15.5-12.6-28.1-28.1-28.1-25.4 0-37.8-12.8-57.6-35.4-21.3-24.2-47.8-54.4-99.9-54.4zM826.5 663.7c-52.1 0-78.6 30.2-99.8 54.5-19.8 22.6-32.2 35.4-57.6 35.4s-37.2-12.1-57.5-35.4c-21.3-24.3-47.7-54.5-99.8-54.5-52 0-78.5 30.2-99.7 54.5-20.3 23.2-32.1 35.3-57.4 35.3-25.4 0-37.2-12.1-57.5-35.4-21.3-24.3-47.7-54.5-99.8-54.5s-78.5 30.2-99.8 54.5c-20.3 23.2-32.1 35.3-57.5 35.3-15.5 0-28.1 12.6-28.1 28.1 0 15.5 12.6 28.1 28.1 28.1 52.1 0 78.5-30.2 99.8-54.5 20.3-23.2 32.1-35.4 57.5-35.4s37.2 12.1 57.5 35.4c21.3 24.3 47.7 54.5 99.8 54.5 52 0 78.5-30.2 99.7-54.5 20.3-23.2 32.1-35.3 57.4-35.3 25.4 0 37.2 12.1 57.5 35.4 21.3 24.3 47.7 54.5 99.8 54.5 52.1 0 78.6-30.2 99.9-54.5 19.8-22.6 32.2-35.4 57.6-35.4s37.8 12.8 57.6 35.4c21.3 24.3 47.8 54.5 99.8 54.5 15.5 0 28.1-12.6 28.1-28.1 0-15.5-12.6-28.1-28.1-28.1-25.4 0-37.8-12.8-57.6-35.4-21.3-24.2-47.8-54.4-99.9-54.4z" p-id="28287" fill="#ffffff"></path></svg>