<?xml version="1.0" standalone="no"?><!DOCTYPE svg PUBLIC "-//W3C//DTD SVG 1.1//EN" "http://www.w3.org/Graphics/SVG/1.1/DTD/svg11.dtd"><svg t="1605513277871" class="icon" viewBox="0 0 1024 1024" version="1.1" xmlns="http://www.w3.org/2000/svg" p-id="2857" xmlns:xlink="http://www.w3.org/1999/xlink" width="200" height="200"><defs><style type="text/css"></style></defs><path d="M0 0l0 960 960 0L960 0 0 0zM896 896 64 896 64 64l832 0L896 896zM128 608C128 660.992 171.008 704 224 704c41.728 0 76.928-26.816 90.112-64L512 640 512 576 512 448l133.888 0C655.552 475.136 676.864 496.448 704 506.112l0 139.776c-37.184 13.248-64 48.384-64 90.112 0 52.992 43.008 96 96 96s96-43.008 96-96c0-41.728-26.816-76.928-64-90.112L768 506.112c37.184-13.248 64-48.384 64-90.112C832 363.008 788.992 320 736 320c-41.728 0-76.928 26.816-90.112 64L512 384 448 384l0 192L314.112 576C304.448 548.864 283.136 527.552 256 517.888L256 314.112C293.184 300.928 320 265.728 320 224 320 171.008 276.992 128 224 128S128 171.008 128 224c0 41.728 26.816 76.928 64 90.112l0 203.776C154.816 531.072 128 566.272 128 608zM736 768c-17.664 0-32-14.336-32-32s14.336-32 32-32 32 14.336 32 32S753.664 768 736 768zM736 384C753.664 384 768 398.336 768 416S753.664 448 736 448 704 433.664 704 416 718.336 384 736 384zM224 640C206.336 640 192 625.664 192 608S206.336 576 224 576 256 590.336 256 608 241.664 640 224 640zM224 192C241.664 192 256 206.336 256 224S241.664 256 224 256 192 241.664 192 224 206.336 192 224 192z" p-id="2858" fill="#ffffff"></path></svg>