<?xml version="1.0" encoding="iso-8859-1"?>
<!-- Generator: Adobe Illustrator 22.1.0, SVG Export Plug-In . SVG Version: 6.00 Build 0)  -->
<svg version="1.1" id="&#x56FE;&#x5C42;_1" xmlns="http://www.w3.org/2000/svg" xmlns:xlink="http://www.w3.org/1999/xlink" x="0px"
	 y="0px" viewBox="0 0 45.35 45.35" style="enable-background:new 0 0 45.35 45.35;" xml:space="preserve">
<path style="fill:#007AD4;" d="M22.675,3.823c1.827,0,3.543,0.347,5.15,1.039c1.606,0.693,2.998,1.628,4.177,2.807
	c1.208,1.209,2.158,2.608,2.851,4.199c0.692,1.591,1.039,3.301,1.039,5.127c0,2.475-0.693,5.149-2.078,8.023
	c-1.385,2.873-2.903,5.533-4.553,7.978c-1.651,2.446-3.846,5.29-6.586,8.531c-2.741-3.241-4.936-6.085-6.586-8.531
	c-1.651-2.446-3.168-5.105-4.553-7.978c-1.385-2.873-2.078-5.547-2.078-8.023c0-1.827,0.346-3.536,1.039-5.127
	c0.692-1.591,1.642-2.991,2.851-4.199c1.178-1.178,2.571-2.114,4.177-2.807C19.131,4.169,20.847,3.823,22.675,3.823L22.675,3.823z
	 M22.675,21.725c0.648,0,1.26-0.125,1.835-0.376c0.575-0.25,1.068-0.581,1.481-0.995c0.442-0.442,0.788-0.95,1.039-1.525
	c0.25-0.575,0.376-1.186,0.376-1.834c0-0.648-0.126-1.26-0.376-1.834c-0.251-0.575-0.597-1.068-1.039-1.481
	c-0.413-0.442-0.906-0.78-1.481-1.017c-0.575-0.236-1.187-0.354-1.835-0.354c-0.648,0-1.26,0.118-1.834,0.354
	c-0.575,0.236-1.068,0.575-1.481,1.017c-0.442,0.413-0.789,0.906-1.039,1.481c-0.251,0.575-0.376,1.187-0.376,1.834
	c0,0.649,0.125,1.26,0.376,1.834c0.25,0.575,0.597,1.083,1.039,1.525c0.412,0.413,0.906,0.745,1.481,0.995
	C21.415,21.6,22.027,21.725,22.675,21.725L22.675,21.725z"/>
</svg>
