<?xml version="1.0" encoding="iso-8859-1"?>
<!-- Generator: Adobe Illustrator 22.1.0, SVG Export Plug-In . SVG Version: 6.00 Build 0)  -->
<svg version="1.1" id="&#x56FE;&#x5C42;_1" xmlns="http://www.w3.org/2000/svg" xmlns:xlink="http://www.w3.org/1999/xlink" x="0px"
	 y="0px" viewBox="0 0 204.09 204.09" style="enable-background:new 0 0 204.09 204.09;" xml:space="preserve">
<path style="fill:#DC5A58;" d="M98.222,42.494L37.669,157.959c-5.373,10.264-4.276,12.211,5.552,12.211h117.536
	c9.827,0,10.924-1.948,5.54-12.211L105.766,42.494C101.121,33.629,102.867,33.629,98.222,42.494z M78.4,32.096
	c13.028-24.848,34.16-24.848,47.189,0l60.553,115.454c13.028,24.848,1.679,44.995-25.374,44.995H43.232
	c-27.053,0-38.403-20.147-25.374-44.995C17.858,147.55,78.4,32.096,78.4,32.096z"/>
<path style="fill:#DC5A58;" d="M101.994,80.617L101.994,80.617c7.462,0,11.193,3.731,11.193,11.193v22.386
	c0,7.462-3.731,11.193-11.193,11.193l0,0c-7.462,0-11.193-3.731-11.193-11.193V91.809C90.802,84.348,94.533,80.617,101.994,80.617z"
	/>
<path style="fill:#DC5A58;" d="M90.802,147.774c0,6.182,5.011,11.193,11.193,11.193s11.193-5.011,11.193-11.193
	c0-6.182-5.011-11.193-11.193-11.193S90.802,141.592,90.802,147.774z"/>
</svg>
