<?xml version="1.0" encoding="iso-8859-1"?>
<!-- Generator: Adobe Illustrator 22.1.0, SVG Export Plug-In . SVG Version: 6.00 Build 0)  -->
<svg version="1.1" id="&#x56FE;&#x5C42;_1" xmlns="http://www.w3.org/2000/svg" xmlns:xlink="http://www.w3.org/1999/xlink" x="0px"
	 y="0px" viewBox="0 0 45.35 45.35" style="enable-background:new 0 0 45.35 45.35;" xml:space="preserve">
<path style="fill:#E6E6E6;" d="M22.675,3.046c-10.831,0-19.629,8.798-19.629,19.629c0,10.831,8.774,19.629,19.629,19.629
	c10.831,0,19.629-8.774,19.629-19.629C42.304,11.844,33.506,3.046,22.675,3.046z M22.675,39.584
	c-9.318,0-16.933-7.591-16.933-16.909c0-9.318,7.591-16.909,16.933-16.909c9.318,0,16.909,7.591,16.909,16.909
	C39.584,31.993,31.993,39.584,22.675,39.584z M25.678,24.189c0.52,0.52,0.52,1.395,0,1.916c-0.26,0.26-0.615,0.402-0.97,0.402
	c-0.249,0-0.476-0.093-0.686-0.224v0.224c0,0.757-0.615,1.372-1.348,1.372c-0.757,0-1.348-0.615-1.348-1.348v-2.862l-4.73-4.73
	c-0.52-0.52-0.52-1.395,0-1.916c0.52-0.52,1.395-0.52,1.916,0l2.814,2.814v-6.645c0-0.757,0.615-1.348,1.348-1.348
	c0.757,0,1.348,0.615,1.348,1.348v9.342L25.678,24.189z M10.874,22.675c0,0.733-0.591,1.348-1.348,1.348H7.492
	c-0.757,0-1.348-0.615-1.348-1.348c0-0.757,0.615-1.348,1.348-1.348h2.034C10.283,21.327,10.874,21.942,10.874,22.675z
	 M39.23,22.675c0,0.733-0.615,1.348-1.372,1.348h-2.01c-0.757,0-1.348-0.615-1.348-1.348c0-0.757,0.615-1.348,1.348-1.348h2.034
	C38.638,21.327,39.23,21.942,39.23,22.675z M21.303,9.479V7.445c0-0.757,0.615-1.348,1.348-1.348c0.757,0,1.348,0.615,1.348,1.348
	v2.034c0,0.733-0.615,1.348-1.348,1.348C21.895,10.827,21.303,10.212,21.303,9.479z M23.999,35.871v2.034
	c0,0.733-0.615,1.348-1.348,1.348c-0.757,0-1.348-0.615-1.348-1.348v-2.034c0-0.757,0.615-1.348,1.348-1.348
	C23.408,34.523,23.999,35.138,23.999,35.871z"/>
</svg>
