<?xml version="1.0" encoding="iso-8859-1"?>
<!-- Generator: Adobe Illustrator 22.1.0, SVG Export Plug-In . SVG Version: 6.00 Build 0)  -->
<svg version="1.1" id="&#x56FE;&#x5C42;_1" xmlns="http://www.w3.org/2000/svg" xmlns:xlink="http://www.w3.org/1999/xlink" x="0px"
	 y="0px" viewBox="0 0 45.35 45.35" style="enable-background:new 0 0 45.35 45.35;" xml:space="preserve">
<path style="fill:#E5E5E4;" d="M41.2,24.541h-6.678c-0.709,0-1.284-0.575-1.284-1.284v-0.514c0-0.709,0.575-1.284,1.284-1.284H41.2
	c0.709,0,1.284,0.575,1.284,1.284v0.514C42.484,23.966,41.909,24.541,41.2,24.541z M32.701,15.737c-0.501,0.502-1.315,0.502-1.816,0
	c0,0,0,0,0,0l-0.363-0.363c-0.501-0.501-0.501-1.314,0-1.816l4.722-4.722c0.501-0.502,1.315-0.502,1.816,0c0,0,0,0,0,0l0.362,0.363
	c0.502,0.501,0.502,1.315,0,1.816c0,0,0,0,0,0L32.701,15.737z M23.295,13.24h-0.514c-0.709,0-1.284-0.575-1.284-1.284l0,0V5.278
	c0-0.709,0.575-1.284,1.284-1.284l0,0h0.514c0.709,0,1.284,0.575,1.284,1.284v6.678C24.579,12.665,24.004,13.24,23.295,13.24z
	 M15.158,15.737c-0.504,0.502-1.319,0.502-1.823,0l-4.739-4.722c-0.502-0.501-0.502-1.315,0-1.816c0,0,0,0,0,0l0.365-0.363
	c0.504-0.501,1.318-0.501,1.823,0l4.738,4.722c0.501,0.499,0.504,1.31,0.005,1.811c-0.002,0.002-0.003,0.003-0.005,0.005
	L15.158,15.737z M12.795,22.743v0.514c0,0.709-0.575,1.284-1.284,1.284c-0.002,0-0.003,0-0.005,0h-6.7
	c-0.709,0.003-1.286-0.57-1.289-1.28c0-0.002,0-0.003,0-0.005v-0.514c0-0.709,0.575-1.284,1.284-1.284c0.002,0,0.003,0,0.005,0
	h6.701c0.709-0.003,1.286,0.57,1.289,1.28c0,0.002,0,0.003,0,0.005H12.795z M13.335,30.263c0.504-0.502,1.319-0.502,1.823,0
	l0.365,0.363c0.501,0.499,0.504,1.31,0.005,1.811c-0.002,0.002-0.003,0.003-0.005,0.005l-4.738,4.722
	c-0.504,0.501-1.318,0.501-1.823,0l-0.365-0.364c-0.501-0.499-0.504-1.31-0.005-1.811c0.002-0.002,0.003-0.003,0.005-0.005
	L13.335,30.263z M22.781,32.76h0.524c0.709,0,1.284,0.575,1.284,1.284v6.678c0,0.709-0.575,1.284-1.284,1.284h-0.524
	c-0.709,0-1.284-0.575-1.284-1.284v-6.678C21.497,33.335,22.072,32.76,22.781,32.76z M30.917,30.263
	c0.504-0.502,1.319-0.502,1.823,0l4.739,4.722c0.501,0.501,0.501,1.314,0,1.816l-0.365,0.364c-0.504,0.501-1.318,0.501-1.823,0
	l-4.739-4.722c-0.501-0.499-0.504-1.31-0.005-1.811c0.002-0.002,0.003-0.003,0.005-0.005L30.917,30.263z"/>
<path style="fill:#E5E5E4;" d="M15.333,23.257c-0.002,4.397,3.561,7.964,7.958,7.966c4.397,0.002,7.964-3.561,7.966-7.958
	c0-0.002,0-0.005,0-0.007c0-4.397-3.564-7.962-7.961-7.963c-4.397,0-7.962,3.564-7.963,7.961
	C15.333,23.256,15.333,23.256,15.333,23.257z"/>
</svg>
