<?xml version="1.0" encoding="iso-8859-1"?>
<!-- Generator: Adobe Illustrator 22.1.0, SVG Export Plug-In . SVG Version: 6.00 Build 0)  -->
<svg version="1.1" id="&#x56FE;&#x5C42;_1" xmlns="http://www.w3.org/2000/svg" xmlns:xlink="http://www.w3.org/1999/xlink" x="0px"
	 y="0px" viewBox="0 0 45.35 45.35" style="enable-background:new 0 0 45.35 45.35;" xml:space="preserve">
<path style="fill:#87A4D0;" d="M37.995,4.292H7.355c-1.692,0-3.063,1.371-3.064,3.063v30.64c0,1.692,1.372,3.064,3.064,3.064h30.64
	c1.692,0,3.064-1.372,3.064-3.064V7.355C41.059,5.663,39.687,4.292,37.995,4.292z M36.925,35.225c0,0.935-0.765,1.701-1.701,1.701
	H10.125c-0.935,0-1.701-0.765-1.701-1.701V25.006l-0.07-0.064l0.07-0.076V10.125c0-0.935,0.765-1.701,1.701-1.701h25.099
	c0.935,0,1.701,0.765,1.701,1.701V35.225z"/>
</svg>
