<?xml version="1.0" encoding="iso-8859-1"?>
<!-- Generator: Adobe Illustrator 22.1.0, SVG Export Plug-In . SVG Version: 6.00 Build 0)  -->
<svg version="1.1" id="&#x56FE;&#x5C42;_1" xmlns="http://www.w3.org/2000/svg" xmlns:xlink="http://www.w3.org/1999/xlink" x="0px"
	 y="0px" viewBox="0 0 45.35 45.35" style="enable-background:new 0 0 45.35 45.35;" xml:space="preserve">
<path style="fill:#007AD4;" d="M41.472,12.401c-0.89-0.56-7.565,2.579-7.565,2.579v-0.33c0-2.742-2.297-4.962-5.134-4.962H9.001
	c-2.838,0.005-5.134,2.225-5.134,4.967v16.681c0,2.742,2.297,4.962,5.134,4.962h19.777c2.838,0,5.134-2.22,5.134-4.962v-0.407
	c0,0,6.713,3.115,7.565,2.579C42.324,32.972,42.367,12.961,41.472,12.401z M14.762,30.967V14.98l13.02,7.991
	C27.782,22.971,14.762,30.967,14.762,30.967z"/>
</svg>
