<?xml version="1.0" standalone="no"?><!DOCTYPE svg PUBLIC "-//W3C//DTD SVG 1.1//EN" "http://www.w3.org/Graphics/SVG/1.1/DTD/svg11.dtd"><svg t="1604108144383" class="icon" viewBox="0 0 1024 1024" version="1.1" xmlns="http://www.w3.org/2000/svg" p-id="3541" xmlns:xlink="http://www.w3.org/1999/xlink" width="32" height="32"><defs><style type="text/css"></style></defs><path d="M866.304 383.488h-271.36c-45.056 0-81.92 36.864-81.92 81.92v412.16c0 45.056 36.864 81.92 81.92 81.92h271.36c45.056 0 81.92-36.864 81.92-81.92V465.408c0-45.056-36.864-81.92-81.92-81.92z m35.84 494.08c0 19.968-15.872 35.84-35.84 35.84h-271.36c-19.968 0-35.84-15.872-35.84-35.84V465.408c0-19.968 15.872-35.84 35.84-35.84h271.36c19.968 0 35.84 15.872 35.84 35.84v412.16z" fill="#13227a" p-id="3542"></path><path d="M820.224 520.192h-179.2c-12.8 0-23.04 10.24-23.04 23.04s10.24 23.04 23.04 23.04h179.2c12.8 0 23.04-10.24 23.04-23.04s-10.24-23.04-23.04-23.04zM820.224 657.408h-179.2c-12.8 0-23.04 10.24-23.04 23.04s10.24 23.04 23.04 23.04h179.2c12.8 0 23.04-10.24 23.04-23.04s-10.24-23.04-23.04-23.04zM728.064 794.112h-87.04c-12.8 0-23.04 10.24-23.04 23.04s10.24 23.04 23.04 23.04h87.04c12.8 0 23.04-10.24 23.04-23.04s-10.24-23.04-23.04-23.04z" fill="#13227a" p-id="3543"></path><path d="M234.496 462.848c0-152.576 123.904-276.48 276.48-276.48 99.84 0 191.488 50.688 240.128 132.096 6.656 10.752 20.48 14.336 31.744 8.192 10.752-6.656 14.336-20.48 8.192-31.744-40.448-68.096-105.984-117.76-182.784-140.288V143.36c0-43.52-35.328-78.848-78.848-78.848h-24.064c-43.52 0-78.848 35.328-78.848 78.848v8.192c-137.216 37.376-238.08 162.816-238.08 311.296v174.08h-2.56c-60.928 0-110.08 49.152-110.08 110.08s49.152 110.08 110.08 110.08h142.848c9.728 55.296 57.856 97.28 115.712 97.28 12.8 0 23.04-10.24 23.04-23.04s-10.24-23.04-23.04-23.04c-32.256 0-59.904-21.504-68.608-51.2h71.168c12.8 0 23.04-10.24 23.04-23.04s-10.24-23.04-23.04-23.04h-261.12c-35.328 0-64-28.672-64-64s28.672-64 64-64h25.6c12.8 0 23.04-10.24 23.04-23.04 0-1.536 0-2.56-0.512-4.096 0-1.024 0.512-2.56 0.512-4.096V462.848z" fill="#13227a" p-id="3544"></path></svg>