<?xml version="1.0" standalone="no"?><!DOCTYPE svg PUBLIC "-//W3C//DTD SVG 1.1//EN" "http://www.w3.org/Graphics/SVG/1.1/DTD/svg11.dtd"><svg t="1604132476185" class="icon" viewBox="0 0 1024 1024" version="1.1" xmlns="http://www.w3.org/2000/svg" p-id="1833" xmlns:xlink="http://www.w3.org/1999/xlink" width="128" height="128"><defs><style type="text/css"></style></defs><path d="M214.016 461.824c0 12.8 10.24 23.04 23.04 23.04h570.368c12.8 0 23.04-10.24 23.04-23.04s-10.24-23.04-23.04-23.04H237.056c-12.8 0-23.04 10.24-23.04 23.04zM807.424 569.344H237.056c-12.8 0-23.04 10.24-23.04 23.04s10.24 23.04 23.04 23.04h570.368c12.8 0 23.04-10.24 23.04-23.04s-10.24-23.04-23.04-23.04zM807.424 699.392H237.056c-12.8 0-23.04 10.24-23.04 23.04s10.24 23.04 23.04 23.04h570.368c12.8 0 23.04-10.24 23.04-23.04s-10.24-23.04-23.04-23.04z" p-id="1834" fill="#13227a"></path><path d="M984.576 315.904L552.448 66.56c-18.432-10.752-41.984-10.752-60.416 0L59.904 315.904c-11.264 6.144-14.848 20.48-8.192 31.232 6.144 11.264 20.48 14.848 31.232 8.192l26.624-15.36V849.92c0 47.104 38.4 86.016 86.016 86.016h640c47.104 0 86.016-38.4 86.016-86.016V332.8l40.448 23.04c3.584 2.048 7.68 3.072 11.264 3.072 8.192 0 15.872-4.096 19.968-11.776 6.144-10.752 2.56-24.576-8.704-31.232zM875.52 849.92c0 22.016-17.92 39.936-39.936 39.936h-640c-22.016 0-39.936-17.92-39.936-39.936V313.856l359.424-207.36c4.608-2.56 10.24-2.56 14.336 0l345.6 199.68V849.92z" p-id="1835" fill="#13227a"></path></svg>