<?xml version="1.0" standalone="no"?><!DOCTYPE svg PUBLIC "-//W3C//DTD SVG 1.1//EN" "http://www.w3.org/Graphics/SVG/1.1/DTD/svg11.dtd"><svg t="1604135959517" class="icon" viewBox="0 0 1024 1024" version="1.1" xmlns="http://www.w3.org/2000/svg" p-id="1801" xmlns:xlink="http://www.w3.org/1999/xlink" width="128" height="128"><defs><style type="text/css"></style></defs><path d="M398.222222 787.911111c-219.022222 0-398.222222-176.355556-398.222222-392.533333C0 176.355556 179.2 0 398.222222 0s398.222222 176.355556 398.222222 392.533333c-2.844444 219.022222-179.2 395.377778-398.222222 395.377778zM398.222222 56.888889C210.488889 56.888889 56.888889 207.644444 56.888889 392.533333c0 184.888889 153.6 335.644444 341.333333 335.644445s341.333333-150.755556 341.333334-335.644445C736.711111 207.644444 585.955556 56.888889 398.222222 56.888889z" p-id="1802" fill="#1296db"></path><path d="M164.977778 412.444444c-17.066667 0-28.444444-14.222222-28.444445-31.288888C142.222222 312.888889 173.511111 253.155556 227.555556 207.644444c11.377778-8.533333 28.444444-8.533333 39.822222 5.688889 11.377778 11.377778 8.533333 31.288889-2.844445 39.822223-39.822222 34.133333-65.422222 79.644444-68.266666 133.688888-2.844444 14.222222-17.066667 25.6-31.288889 25.6zM989.866667 1018.311111c-8.533333 0-14.222222-2.844444-19.911111-8.533333l-307.2-312.888889c-11.377778-11.377778-11.377778-28.444444 0-39.822222 11.377778-11.377778 28.444444-11.377778 39.822222 0l307.2 312.888889c11.377778 11.377778 11.377778 28.444444 0 39.822222-5.688889 5.688889-11.377778 8.533333-19.911111 8.533333z" p-id="1803" fill="#1296db"></path></svg>