<?xml version="1.0" standalone="no"?><!DOCTYPE svg PUBLIC "-//W3C//DTD SVG 1.1//EN" "http://www.w3.org/Graphics/SVG/1.1/DTD/svg11.dtd"><svg t="1604109007460" class="icon" viewBox="0 0 1024 1024" version="1.1" xmlns="http://www.w3.org/2000/svg" p-id="5040" xmlns:xlink="http://www.w3.org/1999/xlink" width="32" height="32"><defs><style type="text/css"></style></defs><path d="M701.696 87.808c-21.248 0-39.168 15.36-42.24 36.352-3.072 20.992 9.472 40.96 29.696 47.36 134.4 65.536 226.816 203.52 226.816 363.008 0 13.056-0.768 25.856-1.792 38.656v1.024c0 1.024-0.256 2.048-0.256 3.328h0.256v0.256c0 23.04 18.176 41.728 40.96 42.752 22.784 1.024 42.496-16.384 44.288-39.168 0.256-0.768 0.256-1.28 0.256-2.048 0-0.768 2.048-22.272 2.048-44.544 0-73.472-22.016-145.408-22.016-145.408-41.472-133.376-143.872-242.944-258.56-297.216-1.024-0.512-2.304-1.024-3.584-1.28-5.376-2.304-10.496-3.072-15.872-3.072zM512.512 0c-47.872 0-86.528 38.656-86.528 86.528 0 47.872 38.656 86.528 86.528 86.528 47.872 0 86.528-38.656 86.528-86.528C599.04 38.656 560.384 0 512.512 0zM133.888 674.304c-47.872 0-86.528 38.656-86.528 86.528 0 47.872 38.656 86.528 86.528 86.528 47.872 0 86.528-38.656 86.528-86.528-0.256-47.872-38.912-86.528-86.528-86.528z m187.904-586.496c-5.12 0-10.496 1.024-15.36 2.816-1.28 0.512-2.56 1.024-3.584 1.536C152.32 164.096 24.576 344.064 22.784 534.528c0 20.224 1.28 40.704 3.584 60.928 0 2.048 0.512 4.096 0.768 6.144v0.256c0 0.256 0.256 0.512 0.256 0.768 3.84 15.616 16.128 27.648 31.488 31.488 15.616 3.84 32-1.024 42.752-12.8 10.752-11.776 14.336-28.672 8.96-43.52-1.536-14.336-2.304-28.672-2.304-43.008C108.288 374.272 201.984 235.52 337.92 170.496c18.944-7.68 29.696-27.648 25.856-47.872-3.84-20.224-21.504-34.816-41.984-34.816z m439.808 773.376c-11.264 0-22.272 4.352-30.464 12.288-133.888 86.528-306.176 86.272-439.552-0.768-12.544-11.776-30.976-14.848-46.848-7.936-15.872 6.912-26.112 22.272-26.368 39.424 0 15.872 8.704 30.208 22.528 37.632 164.608 109.568 378.88 109.312 543.232-1.024 1.28-0.768 2.56-1.536 3.584-2.56l0.512-0.256c1.024-0.768 1.792-1.28 2.56-2.304 8.96-8.192 14.08-19.712 14.08-31.744 0-11.52-4.608-22.528-12.8-30.464-7.936-7.68-18.944-12.288-30.464-12.288z m134.912-188.16c-47.872 0-86.528 38.656-86.528 86.528 0 47.872 38.656 86.528 86.528 86.528 47.872 0 86.528-38.656 86.528-86.528-0.256-47.872-38.912-86.528-86.528-86.528z m0 0" p-id="5041" fill="#1296db"></path></svg>