<?xml version="1.0" encoding="iso-8859-1"?>
<!-- Generator: Adobe Illustrator 22.1.0, SVG Export Plug-In . SVG Version: 6.00 Build 0)  -->
<svg version="1.1" id="&#x56FE;&#x5C42;_1" xmlns="http://www.w3.org/2000/svg" xmlns:xlink="http://www.w3.org/1999/xlink" x="0px"
	 y="0px" viewBox="0 0 45.35 45.35" style="enable-background:new 0 0 45.35 45.35;" xml:space="preserve">
<path style="fill:#0D243F;" d="M31.493,34.156c0.286,0.782,0.755,1.759,1.587,2.777c2.153,2.641,6.093,5.488,6.093,5.488H7.635
	c0,0,4.062-2.996,6.262-5.693c0.627-0.769,1.027-1.507,1.296-2.147c-4.983-2.819-8.365-8.24-8.365-14.474
	c0-9.128,7.239-16.528,16.172-16.528c8.931,0,16.172,7.4,16.172,16.528C39.172,26.049,36.096,31.243,31.493,34.156z M23,9.363
	c-5.807,0-10.513,4.808-10.513,10.743S17.193,30.849,23,30.849c5.804,0,10.51-4.808,10.51-10.743S28.804,9.363,23,9.363z M23,25.894
	c-3.127,0-5.66-2.594-5.66-5.788s2.533-5.785,5.66-5.785c3.124,0,5.66,2.591,5.66,5.785S26.124,25.894,23,25.894z"/>
</svg>
