<?xml version="1.0" standalone="no"?><!DOCTYPE svg PUBLIC "-//W3C//DTD SVG 1.1//EN" "http://www.w3.org/Graphics/SVG/1.1/DTD/svg11.dtd"><svg t="1604823157509" class="icon" viewBox="0 0 1024 1024" version="1.1" xmlns="http://www.w3.org/2000/svg" p-id="1882" xmlns:xlink="http://www.w3.org/1999/xlink" width="128" height="128"><defs><style type="text/css"></style></defs><path d="M365.714286 0a146.285714 146.285714 0 0 1 146.285714 146.285714v210.578286L667.136 512H877.714286a146.285714 146.285714 0 0 1 146.285714 146.285714v219.428572a146.285714 146.285714 0 0 1-146.285714 146.285714H658.285714a146.285714 146.285714 0 0 1-146.285714-146.285714V667.136L356.864 512H146.285714a146.285714 146.285714 0 0 1-146.285714-146.285714V146.285714a146.285714 146.285714 0 0 1 146.285714-146.285714h219.428572zM292.571429 658.285714a73.142857 73.142857 0 0 1 73.142857 73.142857v219.428572a73.142857 73.142857 0 0 1-73.142857 73.142857H73.142857a73.142857 73.142857 0 0 1-73.142857-73.142857v-219.428572a73.142857 73.142857 0 0 1 73.142857-73.142857h219.428572z m658.285714-658.285714a73.142857 73.142857 0 0 1 73.142857 73.142857v219.428572a73.142857 73.142857 0 0 1-73.142857 73.142857h-219.428572a73.142857 73.142857 0 0 1-73.142857-73.142857V73.142857a73.142857 73.142857 0 0 1 73.142857-73.142857h219.428572z" p-id="1883" fill="#ffffff"></path></svg>