<?xml version="1.0" standalone="no"?><!DOCTYPE svg PUBLIC "-//W3C//DTD SVG 1.1//EN" "http://www.w3.org/Graphics/SVG/1.1/DTD/svg11.dtd"><svg t="1603967144493" class="icon" viewBox="0 0 1024 1024" version="1.1" xmlns="http://www.w3.org/2000/svg" p-id="2679" xmlns:xlink="http://www.w3.org/1999/xlink" width="200" height="200"><defs><style type="text/css"></style></defs><path d="M925.568 424h-87.04c-28.8-37.952-68.352-78.528-104.64-112.512l-3.008-2.752a1134.72 1134.72 0 0 0-24.512-23.616c-42.496-39.744-99.2-87.616-146.688-110.08h59.264a87.04 87.04 0 1 0 0-174.336H392.32a87.232 87.232 0 0 0 0 174.336h70.272c-65.856 27.2-138.368 93.824-173.824 129.28-29.184 25.664-77.696 71.744-112.448 119.68H88.832a87.232 87.232 0 0 0 0 174.336h84.544c26.304 34.56 61.696 70.592 92.416 99.328 13.44 12.672 23.04 21.12 25.344 23.04l2.944 2.88c49.92 46.656 113.28 100.032 164.288 123.712h-74.88a87.168 87.168 0 0 0 0 174.272h244.032a87.168 87.168 0 0 0 0-174.272h-80c60.864-28.096 139.392-98.56 175.872-133.44 26.944-24.896 73.984-70.592 109.568-115.584h92.48a87.04 87.04 0 0 0 87.104-87.104 86.912 86.912 0 0 0-86.976-87.168z m-224.64 268.672s-142.656 136.32-196.16 137.28c-48.64 0.832-166.656-107.52-188.032-127.552a172.8 172.8 0 0 1-3.392-3.264s-10.048-8.768-24.896-22.528a989.376 989.376 0 0 1-75.136-78.272h102.144a87.232 87.232 0 0 0 0-174.336H215.872a956.16 956.16 0 0 1 95.488-98.496c4.608-4.672 148.8-148.992 213.504-131.84 47.296 12.48 121.152 77.12 158.848 112.576 14.784 13.952 24.128 23.296 24.128 23.296l3.392 3.072c11.968 11.2 53.12 50.752 87.104 91.392H698.88a87.04 87.04 0 1 0 0 174.272h93.44a1326.912 1326.912 0 0 1-91.392 94.4z" p-id="2680" fill="#ffffff"></path></svg>