<?xml version="1.0" standalone="no"?><!DOCTYPE svg PUBLIC "-//W3C//DTD SVG 1.1//EN" "http://www.w3.org/Graphics/SVG/1.1/DTD/svg11.dtd"><svg t="1604497092124" class="icon" viewBox="0 0 1024 1024" version="1.1" xmlns="http://www.w3.org/2000/svg" p-id="3960" xmlns:xlink="http://www.w3.org/1999/xlink" width="128" height="128"><defs><style type="text/css"></style></defs><path d="M654.57 573.9c79.35-48.37 132.51-135.46 132.51-235.19 0-152.18-123.37-275.55-275.55-275.55S236 186.54 236 338.71c0 99.73 53.17 186.83 132.52 235.19-138.22 56.47-235.88 192.19-235.86 350.83 0 19.02 15.41 33.99 34.43 33.99s34.43-15.88 34.43-34.9c0-170.42 139.07-309.08 310.02-309.08 170.65 0 309.55 138.17 310.04 308.18-0.03 0.64-0.05 1.29-0.05 1.81 0 19.02 15.42 34.44 34.44 34.44 18.48 0 33.57-14.56 34.41-32.84 0.05-0.84 0.08-1.8 0.08-2.51 0-157.94-97.66-293.5-235.89-349.92zM304.88 338.71c0-113.95 92.71-206.66 206.66-206.66S718.2 224.76 718.2 338.71s-92.71 206.66-206.66 206.66-206.66-92.7-206.66-206.66z" p-id="3961" fill="#ffffff"></path></svg>