<?xml version="1.0" standalone="no"?><!DOCTYPE svg PUBLIC "-//W3C//DTD SVG 1.1//EN" "http://www.w3.org/Graphics/SVG/1.1/DTD/svg11.dtd"><svg t="1604567062525" class="icon" viewBox="0 0 1024 1024" version="1.1" xmlns="http://www.w3.org/2000/svg" p-id="7329" xmlns:xlink="http://www.w3.org/1999/xlink" width="128" height="128"><defs><style type="text/css"></style></defs><path d="M169.92 307.09333333c44.58666667 0 82.56-28.48 96.64-68.26666666H921.6c18.88 0 34.24-15.36 34.24-34.24 0-18.88-15.36-34.24-34.24-34.24H266.45333333c-14.08-39.78666667-52.05333333-68.26666667-96.64-68.26666667-56.53333333 0-102.50666667 45.86666667-102.50666666 102.50666667 0.10666667 56.64 45.97333333 102.50666667 102.61333333 102.50666666z m0-136.64c18.88 0 34.24 15.36 34.24 34.24S188.8 238.93333333 169.92 238.93333333s-34.24-15.36-34.24-34.24 15.36-34.24 34.24-34.24z m751.57333333 614.29333334H266.45333333c-14.08-39.78666667-52.05333333-68.26666667-96.64-68.26666667-56.53333333 0-102.50666667 45.86666667-102.50666666 102.50666667 0 56.53333333 45.86666667 102.50666667 102.50666666 102.50666666 44.58666667 0 82.56-28.48 96.64-68.26666666h655.04c18.88 0 34.24-15.36 34.24-34.24s-15.36-34.24-34.24-34.24z m-751.57333333 68.37333333c-18.88 0-34.24-15.36-34.24-34.24 0-18.88 15.36-34.24 34.24-34.24s34.24 15.36 34.24 34.24c-0.10666667 18.88-15.46666667 34.24-34.24 34.24z m-68.26666667-305.06666667h654.29333334c14.08 39.78666667 52.05333333 68.26666667 96.64 68.26666667 56.53333333 0 102.50666667-45.86666667 102.50666666-102.50666667 0-56.53333333-45.86666667-102.50666667-102.50666666-102.50666666-44.58666667 0-82.56 28.48-96.64 68.26666666H101.65333333c-18.88 0-34.24 15.36-34.24 34.24s15.36 34.24 34.24 34.24z m750.93333334-68.37333333c18.88 0 34.24 15.36 34.24 34.24s-15.36 34.24-34.24 34.24-34.24-15.36-34.24-34.24 15.36-34.24 34.24-34.24z" p-id="7330" fill="#ffffff"></path></svg>