<?xml version="1.0" standalone="no"?><!DOCTYPE svg PUBLIC "-//W3C//DTD SVG 1.1//EN" "http://www.w3.org/Graphics/SVG/1.1/DTD/svg11.dtd"><svg t="1604497121015" class="icon" viewBox="0 0 1246 1024" version="1.1" xmlns="http://www.w3.org/2000/svg" p-id="4149" xmlns:xlink="http://www.w3.org/1999/xlink" width="155.75" height="128"><defs><style type="text/css"></style></defs><path d="M787.808441 477.027645c62.324305-48.975139 102.515344-124.754984 102.515344-209.961012C890.322503 119.796466 770.54398 0 623.257151 0c-147.25607 0-267.030748 119.796466-267.030748 267.066633 0 85.204746 40.23205 160.987154 102.515344 209.961012C294.599289 542.596966 178.142678 702.940756 178.142678 890.240481v88.985471c0 24.63239 19.95198 44.547204 44.511319 44.547204h801.1999c24.668275 0 44.548486-19.914814 44.548486-44.548485v-88.98419c0.003845-187.302288-116.415599-347.647359-280.595224-413.212836zM445.213156 267.067915c0-98.209161 79.837397-178.060656 178.04784-178.060656 98.198909 0 178.04015 79.857902 178.04015 178.060656 0 98.187374-79.838678 178.04015-178.04015 178.04015-98.204035-0.001282-178.04784-79.857902-178.04784-178.04015z m534.16787 667.686448h-712.211865v-44.511319c0-196.37603 159.790138-356.126438 356.162323-356.126438 196.335019 0 356.049542 159.752971 356.049542 356.126438v44.511319z" p-id="4150" fill="#ffffff"></path><path d="M325.189847 492.035204c1.217522-2.67214 1.217522-5.549337 1.841662-8.330413 0.404986-1.695559 0.884305-3.302688 1.144471-5.090523 0.333217-3.520561 0.110218-6.857852-0.374228-10.306643-0.184551-1.825001 0.25632-3.559009-0.18455-5.382729-0.25632-1.030408-0.995805-1.792961-1.290574-2.823369-0.702318-2.010834-1.659675-3.801232-2.620876-5.660836-1.84038-3.819174-3.79995-7.300005-6.52848-10.380976-0.439589-0.425492-0.884305-0.73564-1.362343-1.176511-4.019104-4.220315-8.667474-7.430728-13.977152-9.735049-48.126718-21.466834-79.286308-69.29622-79.286308-121.975189 0-61.99237 41.966058-115.371094 102.153933-129.823719 23.933917-5.790278 38.612105-29.83185 32.857712-53.749107-5.788996-23.895469-29.945912-38.42371-53.692716-32.85643-100.305862 24.171014-170.300556 113.198778-170.300556 216.436946 0 56.32769 21.387374 109.137382 57.822038 149.316886C75.565817 520.52778 0 640.580566 0 776.438068v68.848941c0 24.601632 19.91225 44.511319 44.469026 44.511319 24.669557 0 44.548486-19.91225 44.548486-44.510038v-68.850222c0-123.133757 82.75176-228.753141 201.537041-258.659325 14.787124-2.089011 28.210623-11.085857 34.630168-25.744821l0.005126 0.001282z m729.622428-31.553041c36.397497-40.178223 57.820756-92.98407 57.820756-149.316886 0-100.528861-67.71216-188.959399-164.694828-214.981047-23.709637-6.363154-48.162603 7.672951-54.539855 31.399249-6.414418 23.787815 7.672951 48.162603 31.419755 54.560361 58.152691 15.600941 98.796135 68.683615 98.796135 129.018873 0 52.681532-31.086538 100.419925-79.210694 121.936741-5.348125 2.341487-10.10415 5.582658-14.198868 9.845267-0.371665 0.404986-0.772806 0.685657-1.104741 1.050914-2.801582 3.09635-4.795755 6.659204-6.678428 10.530923-0.922753 1.883955-1.917277 3.594894-2.54398 5.569843-0.294768 0.997086-1.071419 1.79168-1.330303 2.822087-0.440871 1.82372 0 3.56029-0.185832 5.38401-0.478038 3.450073-0.701036 6.788646-0.333217 10.306643 0.22428 1.79168 0.704881 3.392401 1.107304 5.090524 0.627985 2.782358 0.627985 5.660836 1.845507 8.334257 6.4157 14.657682 19.88021 23.660936 34.628886 25.737132 118.785282 29.907464 201.537041 135.52813 201.537042 258.659324v68.850223c0 24.597787 19.914814 44.510038 44.548485 44.510037 24.560621 0 44.470308-19.91225 44.470308-44.510037v-68.850223c0.005126-135.851094-75.518398-255.905161-191.350868-315.937962l-0.002564-0.008972z" p-id="4151" fill="#ffffff"></path></svg>