<?xml version="1.0" encoding="iso-8859-1"?>
<!-- Generator: Adobe Illustrator 22.1.0, SVG Export Plug-In . SVG Version: 6.00 Build 0)  -->
<svg version="1.1" id="&#x56FE;&#x5C42;_1" xmlns="http://www.w3.org/2000/svg" xmlns:xlink="http://www.w3.org/1999/xlink" x="0px"
	 y="0px" viewBox="0 0 45.35 45.35" style="enable-background:new 0 0 45.35 45.35;" xml:space="preserve">
<path style="fill:#112540;" d="M18.649,7.271c0,2.297,1.862,4.16,4.16,4.16c2.297,0,4.16-1.862,4.16-4.16s-1.862-4.16-4.16-4.16
	S18.649,4.974,18.649,7.271z"/>
<path style="fill:#112540;" d="M25.602,13.272h-5.412c-1.827,0-3.469,0.665-4.637,1.727v7.677v2.077v0.975h4.069l0.875,12.601h4.975
	l0.847-12.601h4.128v-0.449v-2.801v-7.276C29.27,14.022,27.539,13.272,25.602,13.272z"/>
<path style="fill:#112540;" d="M29.315,30.697v2.193c4.611,0.682,7.779,2.097,7.779,3.73c0,2.31-6.31,4.177-14.092,4.177
	S8.907,38.931,8.907,36.621c0-1.639,3.191-3.057,7.833-3.742v-2.191c-7.708,0.835-13.26,3.174-13.26,5.932
	c-0.006,3.461,8.74,6.268,19.519,6.268s19.522-2.807,19.522-6.265C42.521,33.87,36.995,31.541,29.315,30.697z"/>
</svg>
