<?xml version="1.0" standalone="no"?>
<!DOCTYPE svg PUBLIC "-//W3C//DTD SVG 1.1//EN" "http://www.w3.org/Graphics/SVG/1.1/DTD/svg11.dtd">
<svg t="1604624778182" class="icon" viewBox="0 0 1024 1024" version="1.1" 
xmlns="http://www.w3.org/2000/svg" p-id="2299" xmlns:xlink="http://www.w3.org/1999/xlink"
 width="48" height="48"><defs><style type="text/css"></style></defs><path d="M550.912 924.3648c-92.8768 0-180.4288-11.5712-246.4768-32.6656-91.648-29.184-110.8992-65.9456-110.8992-91.7504 0-20.992 13.1072-51.6096 75.6736-78.6432 44.032-19.0464 103.936-32.9728 173.3632-40.2432l3.1744 30.5152C301.8752 726.6304 224.256 768.4096 224.256 799.9488c0 20.8896 34.304 44.8512 89.4976 62.464 63.1808 20.1728 147.3536 31.232 237.1584 31.232s174.08-11.0592 237.1584-31.232c55.1936-17.6128 89.4976-41.5744 89.4976-62.464 0-31.6416-77.6192-73.3184-221.5936-88.3712l3.1744-30.5152c69.4272 7.2704 129.4336 21.1968 173.3632 40.2432 62.5664 27.136 75.6736 57.7536 75.6736 78.6432 0 25.7024-19.2512 62.5664-110.8992 91.7504-65.9456 21.0944-153.4976 32.6656-246.3744 32.6656z" p-id="2300" fill="#1296db"></path><path d="M474.112 263.7824c0 42.3936 34.4064 76.8 76.8 76.8s76.8-34.4064 76.8-76.8-34.4064-76.8-76.8-76.8c-42.3936 0.1024-76.8 34.4064-76.8 76.8z m0 0M598.9376 374.5792h-99.84c-39.6288 0-54.8864 9.728-54.8864 48.9472v160.5632c0 11.264 9.1136 20.3776 20.3776 20.3776h6.5536c10.24 0 19.2512 6.9632 21.8112 16.896l54.784 215.552h3.4816l56.5248-215.7568c2.56-9.8304 11.4688-16.7936 21.7088-16.7936h7.68c11.264 0 20.48-9.216 20.48-20.48V426.0864c0-40.1408-10.4448-51.5072-58.6752-51.5072z m0 0" p-id="2301" fill="#1296db"></path></svg>