<?xml version="1.0" standalone="no"?>
<!DOCTYPE svg PUBLIC "-//W3C//DTD SVG 1.1//EN"
 "http://www.w3.org/Graphics/SVG/1.1/DTD/svg11.dtd">
 <svg t="1604136044472" class="icon" viewBox="0 0 1024 1024" version="1.1" 
 xmlns="http://www.w3.org/2000/svg" p-id="3216" xmlns:xlink="http://www.w3.org/1999/xlink" 
 width="48" height="48"><defs><style type="text/css"></style></defs><path d="M328.1 536c-73.4 0-133-59.5-133-132.9s59.5-133 133-133c73.4 0 132.9 59.5 132.9 133-0.1 73.3-59.6 132.8-132.9 132.9z m0-235.2c-41.4 0-78.8 25-94.6 63.2-15.8 38.3-7.1 82.3 22.2 111.6 29.3 29.3 73.4 38 111.6 22.1 38.3-15.9 63.2-53.3 63.1-94.7-0.1-56.4-45.9-102.1-102.3-102.2z m0 0M576 800.8H80.5v-15.2C80.5 648.8 191.3 538 328.1 538c136.7 0 247.6 110.8 247.6 247.6l0.3 15.2z m-464.5-30.5h433.3c-8.6-113.3-103-200.9-216.6-200.9-113.7 0-208.1 87.6-216.7 200.9z m0 0" p-id="3217" fill="#1296db"></path><path d="M616 794.1L591.2 777c2.2-3.3 225.5-335 225.5-454.9-0.1-97.4-66.3-182.3-160.7-206.2-94.4-23.9-193 19.3-239.4 104.9-9 16.5-15.8 34.1-20.1 52.4l-29.7-7.1c4.9-20.9 12.6-41.1 22.9-59.9 52.8-98.7 166-148.7 274.5-121.2 108.4 27.4 184.2 125.3 183.7 237.1-1.2 129.2-222.5 458-231.9 472z m0 0" p-id="3218" fill="#1296db"></path><path d="M604.6 434c-47 0.1-89.4-28.2-107.4-71.6-18-43.4-8.1-93.3 25.1-126.6 33.2-33.2 83.2-43.2 126.6-25.2 43.4 18 71.7 60.3 71.7 107.3 0 64-51.9 116-116 116.1z m0-201.5c-34.6-0.1-65.9 20.8-79.1 52.7-13.3 32-6 68.8 18.5 93.3a85.48 85.48 0 0 0 93.3 18.5c32-13.3 52.8-44.5 52.7-79.1-0.1-47.2-38.3-85.3-85.4-85.4z m0 0" p-id="3219" fill="#1296db"></path></svg>