<?xml version="1.0" standalone="no"?><!DOCTYPE svg PUBLIC "-//W3C//DTD SVG 1.1//EN" "http://www.w3.org/Graphics/SVG/1.1/DTD/svg11.dtd"><svg t="1604105875440" class="icon" viewBox="0 0 1024 1024" version="1.1" xmlns="http://www.w3.org/2000/svg" p-id="9293" xmlns:xlink="http://www.w3.org/1999/xlink" width="32" height="32"><defs><style type="text/css"></style></defs><path d="M660.255579 659.06445c-49.179073 49.177026-116.583229 69.01791-180.557262 59.455114l-24.168446 13.95892c75.479065 18.739806 158.715815-1.422396 217.711463-60.419068 28.499078-28.498054 47.949059-62.686714 58.416458-98.871845l-24.103977 13.894451c-10.400884 26.297946-26.165939 50.850132-47.298236 71.982428z m-89.566922 106.4965l-18.808368 2.004657 9.43693 15.896038-4.846378 18.548448 18.548448-4.846378 15.896038 9.432837 2.003634-18.804275 14.669094-12.599969-17.252942-6.78759-6.78452-17.257036-12.861936 14.413268z m209.117738-152.506393l18.160615-3.292999-10.857278-15.640212 2.778276-19.193131-17.515932 6.138814-16.477277-8.590656 0.064469 19.452028-13.053294 13.826913 17.514909 5.881964 8.399297 17.192567 10.986215-15.775288z m-82.201163 118.644167l18.288528 2.39249-5.619998-18.158568 8.459673-17.383926-18.478864 0.518816-13.05227-13.18223-5.816473 18.479886-16.541744 9.305947 14.861476 10.854209 2.844791 18.873859 15.055904-11.699459h-0.00307l0.002047-0.001024z m-226.694046 63.847144l18.998703-3.489474-11.373025-14.603603 2.77623-18.284435-18.287505 6.134721-17.317411-7.881505 0.064468 18.417465-13.571087 13.444197 18.418489 5.235234 8.919136 16.154935 11.372002-15.120372v-0.007163z m-244.338914 48.015573l715.626677-413.189553c17.512862-10.147104 23.585161-32.635281 13.444197-50.15019L845.461721 189.391465c-10.147104-17.512862-32.633235-23.586185-50.151214-13.443174L79.688947 589.143984c-17.512862 10.147104-23.587208 32.630165-13.443174 50.145074l110.180402 190.831256c10.081613 17.575284 32.57286 23.651676 50.146097 13.441127z m-38.899962-30.631647L86.666872 638.000716c-7.561209-13.119809-3.035126-30.052456 10.083659-37.610597L796.476053 196.498326c13.118785-7.559163 30.051433-3.034103 37.609573 10.084683l101.008508 174.931124c7.55814 13.118785 3.035126 30.05041-10.082636 37.61162L225.219461 823.077921c-13.053294 7.623631-29.853935 3.098571-37.545104-10.147104l-0.002047-0.001023z m557.040822-69.406767c-108.175745 108.182908-272.640494 125.693724-399.103743 52.604079l-18.225084 10.602475c134.543276 83.23061 313.482691 66.49546 430.194856-50.209542 70.821999-70.828139 104.747669-164.462702 102.099353-257.195733l-18.155499 10.529821c-0.001023 84.525092-32.252565 169.114652-96.809883 233.6689zM314.394457 432.371428c10.278087-26.170033 25.980721-50.79385 47.176462-71.990614 49.174979-49.174979 116.576065-69.015863 180.555215-59.452044l24.167423-13.957896c-75.481112-18.74083-158.714791 1.422396-217.71351 60.418044-28.498054 28.500101-47.952128 62.684668-58.417481 98.873892-0.001023 0.002047 24.231891-13.891382 24.231891-13.891382zM426.709475 266.165012l18.741853-1.939165-9.434883-15.899109 4.719488-18.417464-18.418488 4.718464-15.900132-9.433859-1.937119 18.739806-14.541181 12.602016 17.254989 6.783497 6.785544 17.253965 12.731976-14.409174-0.002047 0.001023c0 0.001023 0 0 0 0z m-119.616308 39.612183l-18.225084-2.456958 5.623068 18.030655-8.401344 17.320481 18.481933-0.387833 12.989849 13.115715 5.686513-18.35402 16.411785-9.174963-14.8625-10.856256-2.841721-18.869766-14.862499 11.632945z m245.692748-82.458013l-19.129686 2.067078 10.340509 15.378246-4.070712 18.031678 18.611893-4.783956 16.541745 9.049096 1.166569-18.352996 14.34266-12.406565-17.835204-6.464225-7.689123-16.736173-12.278651 14.217817z m-275.614221 52.6665C385.350508 167.809937 549.812187 150.297075 676.276461 223.38365l18.22406-10.599406c-134.543276-83.23061-313.482691-66.49239-430.18974 50.214659-70.826092 70.824045-104.752786 164.459632-102.103446 257.19778l18.158569-10.535961c-0.064468-84.463694 32.247448-169.116699 96.80579-233.67504z m-46.205345 141.585669l-18.095124 3.231601 10.791787 15.44476-2.714831 18.998703 17.448394-6.076392 16.479323 8.594748-0.193405-19.192107 12.924358-13.70207-17.447371-5.814426-8.530281-17.062608c0.001023 0.004093-10.662851 15.57779-10.66285 15.577791z" p-id="9294" fill="#13227a"></path><path d="M261.649162 543.56081c3.559059 11.358699 6.617721 22.448268 9.181103 33.265638l41.754986-23.729448 6.488785 11.416004c12.365632 28.558429 17.901719 56.380078 16.603143 83.461877 15.59007 5.347798 30.843472 5.369288 45.76123 0.063445 17.549701-6.249331 41.21468-18.733667 70.992891-37.448914 0.538259 5.072529 1.485841 10.258645 2.840698 15.557325-27.975145 17.277502-50.774407 28.855188-68.39881 34.733058-17.492396 6.353708-34.947953 6.826476-52.367695 1.415233-2.316765 17.041118-7.331989 33.821293-15.044647 50.343595a312.735677 312.735677 0 0 0-15.565511-3.360538c8.682753-17.488303 14.19735-34.966373 16.544815-52.437279-13.845333-6.888897-27.697829-17.429974-41.557488-31.623232a313.794799 313.794799 0 0 1 1.410115 26.508748c-3.848655-1.675152-8.916067-3.553942-15.20326-5.636371-0.151449-30.121018-6.009877-62.514799-17.57426-97.184413l14.133905-5.344728z m45.022403 28.619828l-32.840966 18.664081a747.843426 747.843426 0 0 1 2.467191 13.0799c15.47239 17.276479 30.592762 29.925566 45.359071 37.947264 0.693802-23.291472-4.299933-46.521546-14.985296-69.691245z m7.819082-60.511166l12.980639-7.375991 29.773094 52.390207 2.349511-11.886724c20.491707 1.596358 39.436174 3.864004 56.83238 6.804986l-2.312672 15.59007c-16.563234-3.415796-35.134195-6.240121-55.713906-8.476045l41.683355 73.346495-12.981663 7.377014-72.610738-127.770012zM451.202309 601.147366a1740.050326 1740.050326 0 0 0 20.013822-19.029402l-26.929325-47.38624-19.548219 11.109012-6.221701-10.946306 19.549241-11.109013-22.219047-39.097459-21.112854 11.999288-6.220678-10.94733 53.797253-30.573319 6.220679 10.94733-21.111831 11.998265 22.219048 39.09746 19.860327-11.287068 6.221701 10.94733-19.86135 11.287068 25.151843 44.257993a1428.883377 1428.883377 0 0 0 16.72901-17.161869c3.187599 4.396123 6.072299 8.135284 8.652054 11.220553a1624.89154 1624.89154 0 0 0-43.768853 44.943608l-11.42112-10.269901z m54.974055-19.035542l48.950876-27.818579-12.797468-22.519899-39.879265 22.663162-6.222725-10.94733 39.879265-22.663162-11.732205-20.643156-25.02086 14.219863 3.287883 5.786797-11.57257 6.576788-45.859467-80.69588 84.762499-48.170092 45.858444 80.69588-11.57257 6.576789-3.287883-5.786797-25.022906 14.219863 11.732205 20.643156 39.879266-22.663162 6.221702 10.947329-39.879266 22.663163 12.797467 22.519899 46.759977-26.574238 6.221702 10.947329-107.283422 60.968584-6.220679-10.946307z m-31.084972-110.401436l25.021883-14.219863-12.264325-21.581527-25.021883 14.219863 12.264325 21.581527z m18.219967 32.05916l25.021883-14.219863-12.353352-21.738093-25.021884 14.219863 12.353353 21.738093z m31.131021-88.658225l-25.02086 14.219862 12.265348 21.581528 25.02086-14.219863-12.265348-21.581527z m5.462409 67.86055l25.022906-14.219863-12.353352-21.738093-25.022907 14.219862 12.353353 21.738094zM569.793264 408.992975l60.20929-34.217313-19.375279-34.092469 13.45136-7.643074 19.375279 34.092469 60.83453-34.5724 40.527019 71.313186-12.82305 7.287987-4.798283-8.445346-48.01148 27.284413 33.062 58.177004-13.449313 7.643074-33.062-58.177004-47.38624 26.929326 4.798282 8.445346-12.82305 7.287986-40.529065-71.313185z m41.97602 44.007283l47.386241-26.929326-22.575158-39.7227-47.386241 26.929326 22.575158 39.7227z m86.271876-101.579513l-48.01148 27.284413 22.575158 39.7227 48.01148-27.284413-22.575158-39.7227z" p-id="9295" fill="#13227a"></path></svg>