<?xml version="1.0" encoding="utf-8"?>
<!-- Generator: Adobe Illustrator 24.0.0, SVG Export Plug-In . SVG Version: 6.00 Build 0)  -->
<svg version="1.1" id="图层_1" xmlns="http://www.w3.org/2000/svg" xmlns:xlink="http://www.w3.org/1999/xlink" x="0px" y="0px"
	 viewBox="0 0 32 32" style="enable-background:new 0 0 32 32;" xml:space="preserve">
<style type="text/css">
	.st0{fill:#FF9900;}
	.st1{fill:#FF9900;stroke:#FF9900;stroke-width:0.25;stroke-miterlimit:10;}
</style>
<path class="st0" d="M14.8,2.6c-3.1,0.3-5.6,1.4-8,3.6c-0.8,0.7-1.4,1.4-2,2.4c-0.7,1.1-1.2,2-1.6,3.2c-0.3,0.8-0.4,1.3-0.5,2.2
	c-0.1,0.6-0.1,0.8-0.1,1.7c0,0.6,0,1.1,0,1.1c0,0,0.2-0.1,0.5-0.3l0.4-0.3l0-0.8c0-1.8,0.4-3.4,1.2-5.1c1-2,2.4-3.6,4.3-4.8
	c1.8-1.2,3.6-1.9,5.8-2.1c0.9-0.1,2.3,0,3.3,0.1c1.1,0.2,2.5,0.6,3.4,1.1l0.2,0.1l0.4-0.3c0.2-0.1,0.4-0.3,0.4-0.3
	c0,0-0.8-0.4-1.3-0.6c-1.1-0.5-2.4-0.8-3.7-1C17,2.6,15.4,2.6,14.8,2.6z M24.9,3.7c-0.1,0-0.2,0.1-0.2,0.1c0,0-5.3,3.3-11.7,7.4
	c-7.5,4.7-11.8,7.5-11.9,7.6c-0.5,0.5-0.6,1.2-0.2,1.8c0.1,0.1,1.2,1.8,2.4,3.8c1.6,2.5,2.3,3.6,2.4,3.7c0.1,0.1,0.3,0.2,0.4,0.3
	c0.2,0.1,0.3,0.1,0.6,0.1c0.4,0,0.4,0,0.6-0.1c0.4-0.2,23.5-14.9,23.6-15c0.3-0.3,0.4-0.5,0.4-0.9c0-0.3,0-0.4-0.1-0.6
	c-0.1-0.3-4.8-7.6-4.9-7.8C26,3.7,25.4,3.6,24.9,3.7z M25.6,4.7c0.1,0.1,4.8,7.4,4.8,7.5c0,0.1,0,0.1,0,0.3
	c-0.1,0.2-0.2,0.3-11.8,7.6c-6.4,4.1-11.7,7.4-11.8,7.4c-0.1,0-0.3,0-0.5-0.2c-0.1-0.1-4.5-7.1-4.7-7.4c-0.1-0.2-0.1-0.3,0-0.5
	c0,0,5.3-3.4,11.8-7.5C26.4,3.8,25.3,4.5,25.6,4.7z"/>
<path class="st0" d="M15.4,4.9l-0.2,0.4l-0.9,0.2l0.2,0.2C14.6,5.8,14.8,6,14.9,6L15,6.2l-0.1,0.4c0,0.2-0.1,0.5-0.1,0.5
	c0,0,0.1,0,0.3-0.2c0.6-0.3,0.4-0.3,1-0.1C16.4,7,16.6,7,16.6,7s0-0.2-0.1-0.5l-0.1-0.5l0.3-0.3C16.9,5.5,17,5.4,17,5.4
	c0,0-0.7-0.1-0.9-0.1c0,0-0.1-0.1-0.3-0.4c-0.1-0.2-0.2-0.4-0.2-0.4C15.6,4.5,15.5,4.7,15.4,4.9z M9.8,6.4c0,0.1,0,0.3,0,0.5
	c0,0.3,0,0.3-0.1,0.4c-0.1,0-0.2,0.2-0.4,0.3L9.2,7.8l0.2,0c0.1,0,0.3,0.1,0.5,0.1L10.1,8l0.2,0.4c0.1,0.2,0.2,0.4,0.2,0.4
	c0,0,0.1-0.2,0.2-0.4L11,8.1l0.3,0C11.8,8,11.9,8,11.9,8c0,0,0,0,0-0.1c0,0-0.2-0.2-0.3-0.3l-0.3-0.3l0.1-0.5
	c0.1-0.3,0.1-0.5,0.1-0.5c0,0-0.2,0.1-0.5,0.2l-0.4,0.2l-0.4-0.3L9.8,6.2C9.8,6.2,9.8,6.4,9.8,6.4z M15.2,7.7
	c-1.6,0.2-3.1,0.8-4.4,1.8c-0.4,0.3-1.2,1.1-1.5,1.6c-0.5,0.6-0.8,1.3-1.1,2l-0.1,0.2l0.1-0.1c0,0,0.4-0.2,0.7-0.5
	c0.6-0.4,0.6-0.4,0.8-0.6c1.1-1.8,3.1-3.1,5.4-3.4l0.5-0.1l0.7-0.4l0.7-0.4l-0.2,0C16.5,7.7,15.5,7.7,15.2,7.7z M7,10.2l-0.3,0.4
	l-0.5,0c-0.3,0-0.5,0-0.5,0c0,0,0.1,0.2,0.3,0.4l0.3,0.4l-0.1,0.4C6,12.2,6,12.3,6.1,12.3c0,0,0.3-0.1,0.5-0.1L7,12l0.4,0.3l0.4,0.3
	l0-0.5l0-0.5l0.4-0.3c0.2-0.2,0.4-0.3,0.4-0.3c0,0-0.2-0.1-0.5-0.2l-0.5-0.2l-0.1-0.5C7.4,10,7.3,9.8,7.3,9.8C7.3,9.8,7.2,10,7,10.2
	z M28.9,15.4l-0.4,0.3l0,0.8c-0.1,2.7-1.1,5.3-2.8,7.4c-0.4,0.5-1.3,1.4-1.9,1.9c-2.8,2.2-6.2,3.2-9.6,2.7c-1.2-0.2-2.3-0.5-3.5-1
	l-0.5-0.2l-0.4,0.3c-0.2,0.1-0.4,0.3-0.5,0.3c0,0,1.4,0.7,1.8,0.9c1,0.4,2.1,0.6,3.2,0.8c0.8,0.1,2.2,0.1,3,0c2.3-0.3,4.3-1,6.2-2.4
	c0.9-0.6,2-1.6,2.7-2.5c1.6-2,2.6-4.4,2.9-7.1c0.1-0.5,0.1-1.8,0-2.1l0-0.2C29.3,15.1,28.9,15.4,28.9,15.4z"/>
<path class="st0" d="M23,19.2l-0.7,0.4l-0.2,0.3c-0.6,0.9-1.4,1.7-2.3,2.3c-0.9,0.6-2.1,1-3.2,1.1c-0.3,0-0.3,0-1,0.5L15,24.2l0.2,0
	c0.3,0,1.3,0,1.7,0c1.2-0.1,2.4-0.6,3.4-1.2c1.3-0.8,2.3-1.9,3-3.2c0.2-0.3,0.5-1,0.5-1C23.8,18.7,23.7,18.8,23,19.2z M24.8,20.3
	l-0.2,0.4l-0.3,0c-0.2,0-0.4,0.1-0.5,0.1l-0.2,0l0.3,0.4l0.3,0.4l0,0.2c0,0.1,0,0.3-0.1,0.5c0,0.1-0.1,0.3-0.1,0.3s0.2-0.1,0.4-0.2
	c0.2-0.1,0.4-0.2,0.5-0.2c0,0,0.2,0.1,0.4,0.2c0.2,0.1,0.4,0.2,0.4,0.2c0,0,0-0.2-0.1-0.5l-0.1-0.5l0.3-0.3c0.2-0.2,0.3-0.3,0.3-0.3
	c0,0-0.7-0.1-0.8-0.2c0,0-0.2-0.2-0.3-0.5l-0.2-0.5C25.1,19.8,24.8,20.3,24.8,20.3z M21.2,23.6L21,24.1l-0.2,0c-0.1,0-0.3,0-0.5,0
	l-0.3,0l0.3,0.4l0.3,0.4l-0.1,0.5c-0.1,0.3-0.1,0.5-0.1,0.5c0,0,0.2-0.1,0.5-0.2l0.5-0.2l0.1,0.1c0.1,0,0.2,0.2,0.4,0.3
	c0.2,0.1,0.3,0.2,0.3,0.1c0,0,0-0.3,0-0.5l0-0.4l0.3-0.3c0.2-0.1,0.3-0.3,0.4-0.3c0.1-0.1,0.1-0.1-0.4-0.1c-0.2,0-0.5-0.1-0.5-0.1
	c0,0-0.1-0.2-0.2-0.5c-0.1-0.2-0.2-0.4-0.2-0.4C21.5,23.2,21.4,23.4,21.2,23.6z M16.7,25.3c-0.2,0.1-0.4,0.2-0.4,0.2
	s-0.2-0.1-0.5-0.2c-0.2-0.1-0.4-0.2-0.4-0.2c0,0,0,0.2,0.1,0.5l0.1,0.5l-0.3,0.4c-0.4,0.4-0.4,0.4,0.2,0.4l0.4,0l0.2,0.3
	c0.3,0.6,0.3,0.6,0.5,0l0.2-0.5l0.2,0c0.1,0,0.3-0.1,0.4-0.1l0.2,0l-0.3-0.3c-0.4-0.3-0.4-0.3-0.2-0.9c0-0.2,0.1-0.4,0.1-0.4
	C17.1,25.1,17,25.2,16.7,25.3z"/>
<g id="图层_2">
	<g>
		<path class="st1" d="M13.1,19.4c0.4,0.7,0.6,0.8,0.8,0.8c0,0,0,0,0.1,0c0,0,0,0,0,0.1c0.1,0.4,0,0.7-0.5,1
			c-0.3,0.2-0.6,0.4-0.9,0.6c-0.7,0.4-1.4,0.8-1.9,1.1c-0.7,0.4-0.8,0.4-1.1-0.2l-1.6-2.6c-0.2-0.3-0.3-0.5-0.5-0.7l0.7-0.1
			c0,0,0,0,0.1,0s0,0,0,0.1L8,19.8l0.3,0.5l3-1.8L10.4,17l-3.1,1.9c-0.1,0.1-0.3,0.2-0.4,0.3l-0.3-0.1c0.2-0.1,0.3-0.2,0.5-0.2
			l3.1-1.9l0-0.4l0.6,0c0,0,0,0,0.1,0c0,0,0,0,0,0.1l-0.1,0.3l0.7,1.1c0.1,0.1,0.4,0.5,0.4,0.6c0,0.1,0,0.1-0.1,0.3
			c0,0.1-0.1,0.1-0.1,0.1c0,0-0.1,0-0.1-0.1l-0.2-0.3l-3,1.8l1.3,2.2c0.1,0.2,0.3,0.3,0.7,0.1c0.1-0.1,0.6-0.3,1.1-0.6
			c0.7-0.4,1.5-0.9,1.8-1.1c0.3-0.2,0.3-0.3-0.3-1.5L13.1,19.4z"/>
		<path class="st1" d="M16,16.8c-1.1,1.1-1.4,1.5-1.5,1.7c0,0,0,0,0,0c0,0,0,0-0.1,0L14,18.5c0.2-0.2,0.2-0.3,0.3-0.7
			c0-0.2,0-0.6,0-1.4c-0.5,0.5-0.8,0.8-0.8,0.9c0,0,0,0,0,0.1c0,0,0,0-0.1,0l-0.4-0.2c0.2-0.2,0.2-0.3,0.2-0.6
			c0-0.5-0.1-1.6-0.2-2.1l0.5,0c0,0,0.1,0,0.1,0c0,0,0,0,0,0.1c-0.1,0.1-0.1,0.2-0.1,0.3c0,0.8,0,1.5-0.1,2.2l1-0.7
			c0-0.5-0.1-0.9-0.1-1.3l0.5,0c0,0,0.1,0,0.1,0c0,0,0,0,0,0.1c-0.1,0.1-0.1,0.2-0.1,0.2c0,0.9-0.1,2-0.2,2.9L16,16.8L16,16.8z
			 M16.8,17.8l-1.1,1.4c-0.3,0.4-0.5,0.7-0.5,0.7c0,0,0,0,0,0.1c0,0,0,0,0,0l-0.4-0.2L16.8,17.8L16.8,17.8z M19.3,15
			c-0.2,0.1-0.4,0.3-0.4,0.5c0,0,0,0,0,0.1c0,0-0.9,0.1-1.9-0.2c-0.1,0.8-0.4,1.6-1.1,2.4l-0.1-0.1c0.6-0.9,0.8-1.7,0.9-2.5
			c-0.4-0.2-0.9-0.5-1.3-0.9c0.1,0.9,0.1,1.5-0.1,1.9l-0.1,0c0.1-1.1-0.2-2.4-0.4-3.1l0.5-0.1c0,0,0.1,0,0.1,0c0,0,0,0,0,0.1
			c-0.1,0.2-0.1,0.2,0,0.9l1.2-0.7l0-0.3l0.6,0c0,0,0.1,0,0.1,0c0,0,0,0,0,0.1c-0.1,0.2-0.1,0.2-0.1,0.4c0,0.5,0,1.1,0,1.6
			C17.7,15.2,18.4,15.2,19.3,15L19.3,15z M15.4,14.2c0.6,0.5,1,0.7,1.4,0.8c0-0.5,0-1-0.1-1.6L15.4,14.2z M17.1,16.5
			c0.5-0.1,0.9,0,1.1,0.2c0.1,0.1,0.1,0.3,0,0.3c-0.1,0.1-0.2,0-0.2-0.1C17.7,16.8,17.5,16.7,17.1,16.5L17.1,16.5z M17.2,18
			c1.2-0.5,1.8-0.6,2.1-0.5c0.1,0,0.2,0.1,0.3,0.2c0.1,0.1,0.1,0.2,0,0.3c-0.1,0-0.2,0-0.4,0C19,17.8,18.4,17.7,17.2,18L17.2,18z"/>
		<path class="st1" d="M26.3,13.2C26.3,13.2,26.3,13.3,26.3,13.2c0.1,0.1,0.1,0.1,0,0.1l-4.8,3c-0.1,0.1-0.3,0.2-0.4,0.3l-0.3-0.1
			c0.2-0.1,0.3-0.2,0.5-0.2l0.8-0.5l-1.8-3c-0.2-0.2-0.4-0.6-0.5-0.8l0.6-0.1c0,0,0.1,0,0.1,0c0,0,0,0,0,0.1l-0.1,0.2l2.1,3.4
			l1.3-0.8L21,10.5c-0.2-0.3-0.4-0.6-0.5-0.8l0.7-0.1c0,0,0.1,0,0.1,0c0,0,0,0,0,0.1L21.1,10l1.1,1.9l1.1-0.7l0-0.5l0.7,0.1
			c0.1,0,0.1,0,0.1,0c0,0,0,0,0,0.1L22.3,12l1.6,2.6l1.7-1l0-0.5L26.3,13.2z"/>
	</g>
</g>
</svg>
