<?xml version="1.0" standalone="no"?><!DOCTYPE svg PUBLIC "-//W3C//DTD SVG 1.1//EN" "http://www.w3.org/Graphics/SVG/1.1/DTD/svg11.dtd"><svg t="1604133331329" class="icon" viewBox="0 0 1024 1024" version="1.1" xmlns="http://www.w3.org/2000/svg" p-id="3251" xmlns:xlink="http://www.w3.org/1999/xlink" 
width="20" height="20"><defs><style type="text/css"></style></defs><path d="M512 512m-512 0a512 512 0 1 0 1024 0 512 512 0 1 0-1024 0Z" fill="#072C4D" p-id="3252"></path><path d="M644.685576 221.246061l4.840727 68.856242c0 2.435879 4.825212 4.887273 7.245576 4.887273h2.420363c-4.840727-2.451394-7.245576-9.774545-7.245575-14.801455v-56.366545c0-12.350061 9.665939-22.124606 21.876363-22.124606 12.194909 0 21.860848 9.774545 21.860849 22.124606v56.614788c0 4.887273-2.420364 9.774545-7.261091 14.801454h2.420364c4.840727 0 7.261091-2.451394 7.26109-4.902788l4.825213-68.825212c50.982788 14.785939 89.894788 61.486545 99.560727 122.88 36.491636 12.334545 58.368 29.463273 48.562424 36.926061-14.739394 10.627879-58.461091 6.593939-134.361212 5.244121a75.450182 75.450182 0 0 0-14.118788-13.684364c-8.347152-6.485333-19.083636-12.474182-31.294061-17.98206-12.443152-46.08-39.160242-84.604121-75.155393-109.304243a120.195879 120.195879 0 0 1 48.562424-24.327757z m-271.204849 0l-4.825212 68.856242c0 2.435879-4.840727 4.887273-7.261091 4.887273h-2.404848c4.825212-2.451394 7.245576-9.774545 7.245576-14.801455v-56.366545c0-12.350061-9.665939-22.124606-21.876364-22.124606-12.194909 0-21.876364 9.774545-21.876364 22.124606v56.614788c0 4.887273 2.435879 9.774545 7.261091 14.801454h-2.420363c-4.825212 0-7.245576-2.451394-7.245576-4.902788l-4.825212-68.825212c-50.998303 14.785939-89.910303 61.486545-99.576243 122.88-36.476121 12.334545-58.352485 29.463273-48.562424 36.926061 14.739394 10.627879 58.492121 6.593939 134.361212 5.244121 4.111515-5.12 8.812606-9.774545 14.118788-13.684364 8.347152-6.485333 19.099152-12.474182 31.309576-17.98206 12.443152-46.08 39.144727-84.604121 75.155394-109.304243a120.195879 120.195879 0 0 0-48.562425-24.327757z m1.163637 160.674909c9.665939-61.502061 50.982788-113.105455 104.51006-125.455515l4.840728 68.840727c0 2.451394 4.825212 4.887273 7.245575 4.887273h2.420364c-4.840727-2.435879-7.261091-9.774545-7.261091-14.78594v-56.490667c0-12.350061 9.665939-22.124606 21.876364-22.124606 12.086303 0 21.876364 9.774545 21.876363 22.124606v56.614788c0 4.887273-2.420364 9.774545-7.261091 14.78594h2.420364c4.840727 0 7.245576-2.435879 7.245576-4.887273l4.840727-68.840727c50.982788 14.801455 89.894788 61.502061 99.560727 122.88 36.491636 12.350061 58.352485 29.478788 48.562425 36.92606-17.020121 12.350061-72.843636 4.887273-172.528485 4.887273-99.452121-0.124121-208.787394 14.677333-184.506182-12.350061 4.825212-4.887273 19.456-14.785939 46.157576-27.011878zM741.469091 808.99103l-46.762667 17.842425H319.177697l-46.762667-17.842425v-65.784242c0-34.474667 43.752727-66.389333 94.735515-93.401212l23.427879-9.774546s27.198061-10.643394 37.34497-14.801454c4.840727-2.451394 29.121939-14.801455 17.035636-51.603394-31.526788-34.350545-53.403152-66.389333-53.403151-137.66594h235.737212c0 71.276606-21.876364 103.315394-53.527273 135.230061-14.615273 41.813333 7.245576 51.587879 12.210424 51.587879 14.615273 4.887273 26.686061 12.350061 41.316849 17.237333l21.876364 9.774546c50.982788 24.591515 92.315152 58.957576 92.315151 93.416727v65.784242z m158.285576-60.648727l-94.72 45.862788-28.16-3.55297 4.468363-25.056969v-17.252849c0-52.565333-45.924848-96.581818-115.029333-129.846303l-22.838303-10.27103-3.490909-1.334303a168.696242 168.696242 0 0 1-16.802909-7.090425c-3.739152-1.706667-7.602424-3.428848-11.481212-5.135515 33.357576-36.569212 50.393212-72.874667 54.504727-126.184727 22.590061-1.225697 29.944242-5.12 42.651151-14.30497 16.787394-12.722424 22.465939-32.768 16.911516-50.982788h59.810909c0 71.276606-21.876364 103.315394-53.403152 135.230061-14.630788 41.813333 7.245576 51.587879 12.194909 51.587879 14.630788 4.887273 26.701576 12.350061 41.332364 17.237333l21.876364 9.774546C858.546424 641.629091 899.878788 675.995152 899.878788 710.438788v37.903515h-0.124121z m-775.509334 0l94.72 45.862788 28.16-3.55297c-2.978909-10.596848-4.468364-18.944-4.468363-25.056969v-17.252849c0-52.565333 45.924848-96.581818 115.029333-129.846303l22.838303-10.27103 3.490909-1.334303c5.678545-2.07903 11.357091-4.406303 16.802909-7.090425 3.739152-1.706667 7.602424-3.428848 11.481212-5.135515-33.357576-36.569212-50.393212-72.874667-54.504727-126.184727-22.590061-1.225697-29.944242-5.12-42.651151-14.30497-16.787394-12.722424-22.465939-32.768-16.911516-50.982788h-59.810909c0 71.276606 21.876364 103.315394 53.403152 135.230061 14.630788 41.813333-7.245576 51.587879-12.194909 51.587879-14.630788 4.887273-26.701576 12.350061-41.332364 17.237333l-21.876364 9.774546C165.453576 641.629091 124.121212 675.995152 124.121212 710.438788v37.903515h0.124121z" fill="#FF5454" p-id="3253"></path></svg>