<?xml version="1.0" standalone="no"?><!DOCTYPE svg PUBLIC "-//W3C//DTD SVG 1.1//EN" "http://www.w3.org/Graphics/SVG/1.1/DTD/svg11.dtd"><svg t="1604026182480" class="icon" viewBox="0 0 1024 1024" version="1.1" xmlns="http://www.w3.org/2000/svg" p-id="5411" xmlns:xlink="http://www.w3.org/1999/xlink" width="200" height="200"><defs><style type="text/css"></style></defs><path d="M474.84189477 83.26074334c-98.52687124 9.36847331-180.73785905 46.00025836-256.00143956 113.89537888-24.8422456 22.52644131-44.10551247 45.36867639-65.36878984 77.57938486-23.05276147 35.0528301-37.89494898 65.36878981-50.63186418 103.57952982-8.3158358 24.73698101-12.31585961 42.42129013-16.84219794 71.47408593-2.73685707 18.3158939-3.15791263 24.63171641-3.15791266 54.52662337-0.10526462 18.52642031 0.21052636 34.00019255 0.63158192 34.52650987 0.52631739 0.31579097 7.05267185-3.15791263 14.63166112-8.0000448l13.89481453-8.63162679 0.1052646-25.8948831c0.10526462-57.78979779 12.42112139-110.10588428 38.21073997-162.63249433 31.78965285-64.63194329 75.78990075-114.42169622 136.73761397-154.63244957 58.94769995-38.94758653 116.63223596-59.47402012 185.26420019-66.42142731 28.42121383-2.84212167 73.57936103-0.94737295 104.21111178 4.31581476 35.1580919 6.10529892 79.68465991 20.42116619 108.21113556 34.73703632l7.15793646 3.68423281 14.00007631-8.9474206c7.78951844-4.73686755 14.10534372-9.15794698 14.10534373-9.47373506 0-0.94737295-26.42120051-14.10534372-40.21075327-20.00011347-36.73704964-15.89482508-75.36884516-26.31593875-117.05328873-31.78965288-18.00010009-2.52633068-70.73723936-3.47370363-87.89523396-1.89474871z m321.37023227 34.73703912c-3.26317725 0.94737295-6.42108989 1.68421951-6.84214547 1.78948413-0.31579097 0-169.0535842 106.63217779-375.05474169 236.94870195-239.47503261 151.57980146-376.42317019 239.05397703-380.10740292 242.63294525-15.89482508 15.47377226-18.42115571 38.42126915-6.73688091 58.10558876 2.84212167 4.63160578 36.947576 58.73717357 75.89516535 120.42173058 49.89501761 78.94781335 72.52672351 114.00064069 77.05306465 118.52698467 3.78949463 3.78949463 9.36847331 7.89478022 13.36849715 9.89479072 6.21056069 2.84212167 8.63162677 3.26317725 19.26326688 3.26317725 11.2632221 0 12.94744156-0.31579097 19.47379327-3.68423282 13.15796798-6.63161625 751.16212362-475.26583239 756.53057313-480.42375556 8.52636501-8.00004484 11.57901307-15.26324307 12.21059499-28.42121382 0.52631739-9.89479351 0.21052636-11.78953942-2.42106604-17.68430916-4.31581481-9.15794698-152.8429654-244.63295575-157.47457117-249.58035249-10.7369019-11.47374845-29.05279578-16.10535421-45.15814722-11.78953946z m21.78959471 32.63176124c4.4210766 4.10528559 152.63243899 235.68553804 154.63244958 241.5803077 0.94737295 2.6315925 0.63158197 4.52634119-1.57895498 9.05268236-2.94738627 5.57897872-7.57898924 8.63162677-377.37054591 242.84347165-205.89589565 130.4217859-375.89685278 237.58028388-377.58107234 238.31713324-4.52634119 1.57895492-10.84216646-1.26316394-14.84219026-6.42108987-3.36843902-4.63160578-144.63239422-228.00128415-149.36926178-236.21185535-3.15791263-5.47371414-3.05264805-10.84216646 0.21052925-15.26324306 0.84211119-1.05263751 170.63253914-109.15850851 377.1600167-239.89608823 414.63391293-262.73832046 380.21266759-242.10662505 388.73902974-234.00131844z m0 0" p-id="5412" fill="#d81e06"></path><path d="M491.78936017 156.94536899l-6.63161624 14.00007912-29.0527958 5.36845233 7.15793641 6.21056072c3.89475921 3.36843902 9.36847331 8.21057119 12.00006582 10.63164009l4.8421322 4.42107658-2.10527511 13.89481453c-1.26316394 7.6842538-2.10527515 14.6316611-2.10527508 15.47377224 0 0.84211119 4.52634119-1.36842851 10.10531986-4.84213218 17.68430912-11.05269284 14.10534372-10.7369019 30.52648896-3.05265088 7.78951844 3.78949463 14.31587013 6.42108989 14.31587008 6.10529894 0-0.31579097-1.47369313-7.57898924-3.15791265-15.89482786l-3.15791263-15.05271385 10.00005532-10.94743105c5.57897872-6.10529892 9.78952891-11.36848385 9.47373793-11.68427767-0.63158197-0.52631739-22.42117952-2.84212167-28.10542003-2.94738339-1.26316394 0-4.52634119-4.63160578-9.15794695-12.842177-3.89475921-7.05267185-7.47372743-12.84217696-7.7895184-12.8421798-0.21052636 0.10526462-3.47370363 6.42108989-7.15793369 14.00007913z m-177.47468461 46.73710492c0.31579097 3.15791263 0.94737295 10.52637547 1.47369315 16.10535426 0.73684655 10.00005533 0.73684655 10.52637547-2.21053688 12.84217695-1.68421951 1.47369313-6.94740726 6.00003428-11.68427769 10.10532272l-8.63162675 7.57898924 6.31582529 1.26316393c3.57896821 0.73684655 10.21058448 2.2105397 15.05271669 3.26317722l8.73688854 2.0000105 5.89477254 13.89481456c3.15791263 7.6842538 6.21056069 13.89481451 6.63161628 13.89481449 0.31579097 0 3.78949463-5.68424332 7.68425385-12.73691235l7.05266904-12.63165058 9.36847615-0.73684656c17.36851814-1.47369313 22.2106503-2.10527515 22.21065029-3.15791266 0-0.63158197-0.52631739-1.36842851-1.0526375-1.68421957-0.63158197-0.31579097-5.05266137-5.36845233-9.89479355-11.05269281l-8.73689134-10.42111091 3.6842328-14.84219026c2.00001049-8.3158358 3.57896821-15.15798125 3.26317442-15.36850767-0.10526462-0.10526462-6.73688087 2.73685707-14.52639651 6.42108988l-14.31587009 6.7368809-13.57902353-8.63162957-13.36849715-8.52636222 0.63158195 5.68424051z m172.73781427 43.89498612c-51.36871071 5.26318774-99.36897959 24.73698101-140.84289675 57.05295121-13.78954992 10.7369019-37.4738962 35.47388284-48.31606268 50.63186412-14.52639648 20.10537522-26.9475207 42.52655475-35.47388291 63.89509675l-2.31580148 6.00003431 2.84212166-1.78948413c1.57895492-0.94737295 11.68427763-7.47372743 22.52644129-14.42113472 19.15800224-12.21059499 20.00011342-12.94744156 24.736981-20.73695717 34.42124533-58.10559163 100.42161712-99.89529972 172.1062323-109.26377309l14.63166109-1.78948416 22.21065031-14.31587012 22.21065311-14.31587007-6.73688086-0.84211119c-6.94740726-0.73684655-40.21075326-0.84211119-47.57921608-0.10526174z m-262.52779132 78.52675777l-8.94742056 12.4211214-15.47376943-0.84211117c-8.63162677-0.31579097-15.57903407-0.52631739-15.57903691-0.1052618 0 0.21052636 3.89475921 6.00003428 8.63162964 12.63165057l8.52636215 12.21059504-3.68423 11.36848386c-4.73686755 15.26324307-5.89476972 21.052751-3.6842328 20.21063978 0.94737295-0.21052636 8.00004484-2.31580149 15.89482783-4.63160574l14.10534091-4.00002105 11.47374846 9.2632088 11.47375123 9.15794698 0.63158197-15.36850766 0.63158196-15.36850771 12.52638598-9.05268234c6.94740726-5.05266137 12.42112139-9.26320875 12.21059502-9.36847334-0.21052636-0.21052636-6.94740726-2.94738627-15.05271669-5.89476971l-14.63166107-5.36845233-4.31581482-14.84218751c-2.31580149-8.00004484-4.63160578-14.73692572-5.15792313-14.73692565-0.21052636 0-4.52634119 5.57897872-9.57899974 12.31585958z m699.05656639 166.00093335l-12.94744161 8.94741777-0.73684655 24.42119001c-2.52633068 85.78995607-33.68439875 169.57990156-88.31628672 237.79081307-13.78954992 17.36851814-42.42129013 46.00025836-59.47402013 59.68454654-89.05313332 71.15829494-197.58005982 101.15846372-307.47541492 85.05310949-38.52653376-5.68424332-74.52673397-16.21061882-110.94799261-32.73702584l-14.73692289-6.63161625-13.89481737 8.73689136c-7.6842538 4.73686755-14.10534372 8.94741778-14.42113185 9.157947-0.94737295 0.84211119 44.52656527 22.2106503 59.05296176 27.68436722 32.00017924 12.10533044 67.36880031 20.63169541 103.0532124 24.84224282 24.10539901 2.84212167 70.84250397 2.84212167 95.15842938-0.10526181 72.2109325-8.63162677 136.00076462-32.84229039 198.21164457-75.26358335 29.78964237-20.21063983 64.63194329-52.42134826 86.52680263-79.78992173 51.78976629-65.05299884 83.57941918-141.89553431 93.47420987-226.84338205 1.78948415-15.15798125 2.84212167-56.84242487 1.57895494-66.21089817l-0.94737296-7.68425381-13.15796794 8.94741773z m0 0" p-id="5413" fill="#d81e06"></path><path d="M737.15916249 613.15846372l-21.26327737 13.68428811-7.15793646 10.84216647c-20.00011342 29.89490416-45.57920279 54.84241436-74.1056784 72.73724987-28.63174019 17.78957376-67.89511772 31.26333268-101.68478388 34.63177452-8.00004484 0.84211119-9.26320875 1.47369313-30.73701529 15.2632459l-22.31591494 14.31586729 5.57897872 0.84211116c8.73689139 1.26316394 42.73708395 0.84211119 54.00030318-0.52631739 38.31600453-4.63160578 77.15832927-18.3158939 109.68482871-38.42126913 40.42127965-25.05277199 73.05304366-60.42139307 95.79001414-103.26373877 5.68424332-10.7369019 15.36850768-31.78965285 15.36850769-33.36861057-0.10526462-1.57895492-3.47370363 0.42105555-23.1580261 13.26323254z m57.78979779 35.36862109l-7.15793363 13.89481453-10.42111091 1.57895489c-5.68424332 0.73684655-12.84217696 1.68421951-15.57903682 2.21053972l-5.15792317 0.73684654 10.52637552 11.36848384 10.31584633 11.3684867-0.84210842 6.94740727c-0.52631739 3.78949463-1.57895492 10.52637547-2.52633064 14.84218746-0.84211119 4.4210766-1.68421951 8.3158358-1.68421955 8.6316296 0 0.31579097 6.00003428-2.2105397 13.36849714-5.89476975 7.36846283-3.57896821 14.00007909-6.42108989 14.73692289-6.42108988 0.84211119 0 7.15793366 3.05264805 14.10534371 6.84214266 7.05267185 3.78949463 12.94744156 6.63161625 13.15796799 6.31582532 0.21052636-0.10526462-0.63158197-6.94740726-1.78948412-15.05271671l-2.10527512-14.6316611 11.05269571-10.63163728c6.10529892-5.68424332 10.84216646-10.7369019 10.52637269-10.94743108-0.52631739-0.52631739-20.94748638-4.31581481-26.84225613-5.15792311-0.94737295-0.10526462-5.15792315-6.84214268-9.26320876-15.15798131l-7.47372741-14.84218742-6.9474073 14.00007911zM679.36936192 756.42242933l-8.21057122 13.36849437-6.42108989 0.63158482c-3.36843902 0.31579097-10.52637547 1.05263751-15.68429868 1.57895489l-9.2632087 0.94737295 10.21058449 11.78954226 10.3158463 11.78953942-3.78949461 14.84218746c-2.10527515 8.21057119-3.68423001 15.05271665-3.36843904 15.15798126 0.21052636 0.21052636 6.84214268-2.31580149 14.73692292-5.57897872l14.42113468-6.10529892 3.26317723 2.31580432c1.78948415 1.36842851 7.89478022 5.26318774 13.36849432 8.63162675 7.47372743 4.63160578 10.00005533 5.68424332 9.68426718 4.10528561-0.31579097-1.26316394-1.05263751-8.52636501-1.47369315-16.21061595l-0.84211116-14.00007919 10.00005815-8.52636499c5.47371414-4.73686755 11.05269284-9.36847331 12.42112137-10.52637546 2.31580149-1.78948415 1.68421951-2.10527515-11.36848389-4.63160299-7.6842538-1.57895492-14.73692572-3.26317725-15.89482778-3.89475919-1.05263751-0.52631739-4.63160578-7.36846283-7.78951844-15.15798131-3.15791263-7.6842538-5.89476972-14.00007909-6.00003149-14.00007909 0 0.21052636-3.68423001 6.21056069-8.31583859 13.4737617z m-143.57975388 53.78977685c-7.05267185 4.00002383-13.15796798 7.26319826-13.68428808 7.2631982s-7.26319826-2.94738627-15.05271674-6.63161623c-7.6842538-3.68423001-14.00007909-6.42108989-14.00007911-6.31582531 0 0.21052636 1.36842851 7.15793366 3.05265081 15.47376945l3.05264812 15.05271668-11.05269571 11.26322202c-12.94744156 12.94744156-13.57902355 12.00006862 7.68425385 13.26323257l12.00006864 0.84211118 6.00003433 11.05269282c9.6842643 17.78957376 8.21057119 17.78957376 16.63167156 0.94737298l7.15793645-14.63166112 7.89478023-1.26316391c4.4210766-0.73684655 10.6316401-1.68421951 13.68428814-2.21053968l5.68424332-0.94737298-10.21058451-9.05268234c-11.68427763-10.21058448-11.2632221-8.63162677-7.89478301-28.52647565 1.05263751-7.15793366 2.10527515-13.05270614 2.10527508-13.05270611-0.21052636 0.31579097-6.00003428 3.47370363-13.05270337 7.47372743z m0 0" p-id="5414" fill="#d81e06"></path><path d="M293.57771837 638.10597392l55.89505191-35.89493845-10.42111089-16.21061889-48.31606266 30.94754171-11.57901309-18.00010008 48.31606267-30.94754173-12.73691513-19.78958703 19.36853142-12.42112141 12.73691238 19.78958426 49.68449122-31.89491467 11.57901302 18.00010011-49.68449121 31.89491749 10.42111094 16.21061599 56.73716303-36.4212586 11.57901025 18.00010292-50.10554398 32.10544383c24.63171641 7.6842538 50.21080854 8.84215597 76.73727368 3.36843904-0.94737295 8.63162677-1.68421951 17.78957376-2.31580146 27.26331168-24.52645462 1.26316394-48.31606268-2.52633068-71.57935056-11.36848385l31.2633327 48.73711542-19.36852868 12.4211214-30.42122431-47.4739515c-1.89474868 22.31591494-8.3158358 45.47394101-19.36853148 69.47407544-8.3158358-3.36843902-16.42114523-6.21056069-24.42118998-8.52636216 14.84218745-24.52645462 23.78960804-48.84238004 27.05278526-73.0530437l-49.5792266 31.7896529-11.47374845-18.00010012zM419.26263669 480.21034715l19.26326688-9.26320874c3.36843902 8.52636501 6.52635166 16.84220077 9.26320878 24.94750738l33.89492798-21.68433295 10.63163722 16.63167439c3.26317725 5.15792315 7.36846283 14.52639648 12.10533321 28.00015545s7.26319826 27.57910268 7.68425386 42.42129291c18.63168489 2.52633068 40.63180883-4.4210766 66.10563353-20.73695994 11.15795746-7.15793366 21.26327735-14.10534372 30.31595976-20.94748641 1.05263751 6.94740726 3.15791263 15.26324307 6.21056352 24.94751021-22.10538851 13.78954992-37.4738962 22.84223511-45.89499656 27.15804707-8.42110042 4.31581481-17.78957376 7.57898924-28.21068468 9.78952894-10.42111091 2.2105397-20.31590445 2.52633068-29.78964233 1.05263752-2.00001049 14.10534372-6.21056069 28.10542005-12.84217695 42.00023739-10.52637547-4.00002383-18.00010009-6.42108989-22.42117953-7.26320108 7.36846283-13.78954992 12.00006862-27.57910268 14.0000791-41.26338799-8.73689139-4.10528559-17.89483834-10.00005533-27.47383809-17.89483831 0.73684655 6.94740726 1.15790214 13.68428814 1.15790215 20.10537516-7.57898924-5.47371414-15.15798125-10.42111091-22.94749965-14.7369228-0.63158197-23.26328786-7.6842538-50.94765511-21.0527482-83.2636282z m71.15829492 73.6846256c-1.05263751-17.15799177-6.31582533-34.10545437-15.89482781-50.94765511l-20.52643079 13.15796795c0.94737295 3.47370363 1.78948415 6.84214268 2.63159528 10.21058454 11.68427763 12.52638599 22.94749686 21.78959755 33.78966332 27.57910262zM478.31560125 444.31540868l18.8422113-12.10533042 69.89512815 108.94797933-18.84221125 12.10533319-69.8951282-108.9479821z m52.63187464 9.36847337c14.52639648 4.73686755 29.89490416 10.52637547 46.00025837 17.15799175l-9.05268239 21.57906833c-13.78954992-7.15793366-28.84226658-13.89481451-45.05288541-20.31590441l8.10530943-18.42115567zM626.10590528 530.63168489l-16.52640981-17.15799176 14.10534371-14.31587009-21.78959752-34.10545434-13.26323258 8.52636215-11.05269283-17.15799178 13.26323253-8.52636216-18.63168489-29.05279581-13.89481452 8.84215599-11.15795747-17.47378278 45.36867641-29.15806037 11.15795746 17.47378274-13.89481455 8.84215601 18.63168493 29.05279576 12.84217698-8.21057402 11.05269288 17.1579918-12.84217704 8.21057121 18.94747588 29.57911598c4.10528559-4.52634119 8.00004484-8.94741778 11.78953945-13.3684972 3.78949463 6.84214268 7.78951844 13.15796798 12.00006864 19.0527377l34.31598075-22.00012393-7.68425384-12.00006583-31.57912369 20.21063984-10.10531989-15.78956324 31.57912362-20.21063983-6.42108704-10.00005534-30.84227989 19.78958426-46.10552299-71.89514149 79.47413073-50.94765517 46.10552301 71.89514153-30.84227716 19.78958425 6.42108714 10.00005812 31.57912641-20.21064266 10.10531996 15.78956327-31.57912649 20.21063981 7.68425384 12.00006861 37.68442258-24.10539901 10.1053199 15.78956324-94.947903 60.84244582-9.36847336-14.63166106c-10.00005533 11.47374845-20.63169541 23.78960804-31.68438825 37.26336978z m5.05266137-135.89550277l13.57902355-8.73689141-8.42110042-13.15796794-13.57902354 8.73689133 8.42110041 13.15796802z m17.78957374 27.68436719l13.57902354-8.73689136-8.52636503-13.26323257-13.57902354 8.7368914 8.52636503 13.26323253z m18.6316821-69.57934001l-13.57902359 8.73689136 8.42110044 13.15796797 13.57902352-8.73689134-8.42110037-13.15796799z m26.21067413 40.84233522l-8.52636223-13.26323257-13.57902634 8.7368914 8.52636504 13.26323254 13.57902353-8.73689137z" p-id="5415" fill="#d81e06"></path></svg>