<?xml version="1.0" standalone="no"?><!DOCTYPE svg PUBLIC "-//W3C//DTD SVG 1.1//EN" "http://www.w3.org/Graphics/SVG/1.1/DTD/svg11.dtd"><svg t="1604497155008" class="icon" viewBox="0 0 1024 1024" version="1.1" xmlns="http://www.w3.org/2000/svg" p-id="4989" xmlns:xlink="http://www.w3.org/1999/xlink" width="128" height="128"><defs><style type="text/css"></style></defs><path d="M477.866667 641.092267h65.3312A244.736 244.736 0 0 1 773.9392 477.866667C846.506667 477.866667 910.882133 509.678933 955.733333 559.991467l-73.5232 42.120533a163.84 163.84 0 0 0-108.202666-42.120533c-60.279467 0-112.366933 32.836267-140.9024 81.1008h65.3312L588.117333 750.933333 477.866667 641.092267zM959.419733 792.507733A246.715733 246.715733 0 0 1 727.6544 955.733333 242.551467 242.551467 0 0 1 546.133333 874.632533l73.864534-42.052266c28.672 25.6 66.628267 41.028267 107.656533 41.028266a164.522667 164.522667 0 0 0 141.5168-81.1008h-65.672533L914.295467 682.666667 1024 792.507733h-64.580267z" fill="#ffffff" p-id="4990"></path><path d="M68.949333 178.244267L498.346667 2.525867a30.788267 30.788267 0 0 1 23.415466 0l425.7792 172.714666a32.221867 32.221867 0 0 1-0.955733 59.938134l-473.770667 175.581866a31.1296 31.1296 0 0 1-23.552-0.8192L67.9936 237.3632c-25.3952-11.605333-24.7808-48.605867 1.024-59.118933z m345.224534 836.608l-397.994667-225.28a32.290133 32.290133 0 0 1-16.1792-27.989334V314.026667c0-23.1424 23.074133-38.5024 43.895467-29.4912l397.9264 174.421333c11.537067 5.051733 19.114667 16.725333 19.114666 29.4912v498.2784a31.5392 31.5392 0 0 1-46.762666 28.125867zM99.669333 526.062933a32.290133 32.290133 0 0 0 15.428267 28.125867l179.541333 108.407467a31.470933 31.470933 0 0 0 47.5136-27.101867 32.085333 32.085333 0 0 0-15.428266-27.989333l-179.541334-108.407467a31.402667 31.402667 0 0 0-47.5136 26.965333z" fill="#ffffff" p-id="4991"></path></svg>