<?xml version="1.0" standalone="no"?><!DOCTYPE svg PUBLIC "-//W3C//DTD SVG 1.1//EN" "http://www.w3.org/Graphics/SVG/1.1/DTD/svg11.dtd"><svg t="1604566823332" class="icon" viewBox="0 0 1024 1024" version="1.1" xmlns="http://www.w3.org/2000/svg" p-id="5907" xmlns:xlink="http://www.w3.org/1999/xlink" width="128" height="128"><defs><style type="text/css"></style></defs><path d="M512 1019.62300001c-279.89999999 0-507.623-227.725-507.624-507.62400001s227.725-507.623 507.624-507.624 507.623 227.725 507.624 507.624-227.725 507.623-507.624 507.62400001zM512 67.82899999c-244.92099999 0-444.171 199.251-444.17100001 444.17100001s199.251 444.171 444.17100001 444.17100001 444.171-199.251 444.17100001-444.17100001-199.251-444.171-444.17100001-444.17100001z" p-id="5908" fill="#1296db"></path><path d="M437.966 769.39c-8.118 0-16.235-3.099-22.432-9.295-12.393-12.393-12.393-32.471 0-44.863l177.222-177.222c12.363-12.363 12.363-32.501 0-44.863l-177.221-177.223c-12.393-12.393-12.393-32.471 0-44.865s32.471-12.393 44.863 0l177.222 177.222c37.117 37.102 37.117 97.487 0 134.591l-177.221 177.222c-6.196 6.197-14.314 9.29500001-22.432 9.295z" p-id="5909" fill="#1296db"></path></svg>