<?xml version="1.0" standalone="no"?><!DOCTYPE svg PUBLIC "-//W3C//DTD SVG 1.1//EN" "http://www.w3.org/Graphics/SVG/1.1/DTD/svg11.dtd"><svg t="1604569217061" class="icon" viewBox="0 0 1024 1024" version="1.1" xmlns="http://www.w3.org/2000/svg" p-id="8726" xmlns:xlink="http://www.w3.org/1999/xlink" width="128" height="128"><defs><style type="text/css"></style></defs><path d="M512 73.142857c241.371429 0 438.857143 197.485714 438.857143 438.857143s-197.485714 438.857143-438.857143 438.857143-438.857143-197.485714-438.857143-438.857143 197.485714-438.857143 438.857143-438.857143m0-73.142857C226.742857 0 0 226.742857 0 512s226.742857 512 512 512 512-226.742857 512-512-226.742857-512-512-512z" fill="#3296FA" p-id="8727"></path><path d="M731.428571 438.857143H292.571429c-43.885714 0-73.142857 29.257143-73.142858 73.142857s29.257143 73.142857 73.142858 73.142857h438.857142c43.885714 0 73.142857-29.257143 73.142858-73.142857s-29.257143-73.142857-73.142858-73.142857z" fill="#3296FA" p-id="8728"></path><path d="M563.2 343.771429L358.4 548.571429c-29.257143 29.257143-73.142857 29.257143-102.4 0-29.257143-29.257143-29.257143-73.142857 0-102.4l204.8-204.8c29.257143-29.257143 73.142857-29.257143 102.4 0 29.257143 29.257143 29.257143 73.142857 0 102.4z" fill="#3296FA" p-id="8729"></path><path d="M563.2 680.228571L358.4 475.428571c-29.257143-29.257143-73.142857-29.257143-102.4 0-29.257143 29.257143-29.257143 73.142857 0 102.4l204.8 204.8c29.257143 29.257143 73.142857 29.257143 102.4 0 29.257143-29.257143 29.257143-73.142857 0-102.4z" fill="#3296FA" p-id="8730"></path></svg>