<?xml version="1.0" standalone="no"?><!DOCTYPE svg PUBLIC "-//W3C//DTD SVG 1.1//EN" "http://www.w3.org/Graphics/SVG/1.1/DTD/svg11.dtd"><svg t="1594259498009" class="icon" viewBox="0 0 1097 1024" version="1.1" xmlns="http://www.w3.org/2000/svg" p-id="11043" width="51.421875" height="48" xmlns:xlink="http://www.w3.org/1999/xlink"><defs><style type="text/css"></style></defs><path d="M1094.87279 525.312a37.449143 37.449143 0 0 1-48.201143 20.772571l-23.698286-9.069714V950.857143c20.553143 0 37.229714 16.384 37.229714 36.571428s-16.676571 36.571429-37.229714 36.571429H37.446504a36.937143 36.937143 0 0 1-37.229714-36.571429c0-20.187429 16.676571-36.571429 37.229714-36.571428h18.578286V73.142857c0-40.448 33.353143-73.142857 74.386285-73.142857h446.317715c41.106286 0 74.386286 32.694857 74.386285 73.142857v242.541714l422.692572 162.230858h-0.073143c19.163429 7.314286 28.598857 28.598857 21.138286 47.396571zM316.413361 950.857143h85.504v-134.875429H316.413361V950.857143zM130.411075 73.142857v877.714286h111.542857v-208.018286h234.349715V950.857143h100.425143v-169.910857c0-0.512-0.292571-0.950857-0.292572-1.536 0-0.512 0.292571-0.950857 0.292572-1.462857V634.660571c0-0.585143-0.292571-1.024-0.292572-1.536 0-0.512 0.292571-0.950857 0.292572-1.462857V73.142857H130.411075z m520.704 523.410286h111.981715c20.553143 0 37.229714 16.384 37.229714 36.571428s-16.676571 36.571429-37.229714 36.571429H651.115075v73.142857h111.981715c20.553143 0 37.229714 16.384 37.229714 36.571429s-16.676571 36.571429-37.229714 36.571428H651.115075V950.857143h297.545143V508.416L651.115075 394.166857v202.386286zM427.956218 621.714286a36.937143 36.937143 0 0 1-37.229714-36.571429V512c0-20.187429 16.676571-36.571429 37.229714-36.571429s37.156571 16.384 37.156572 36.571429v73.142857c0 20.187429-16.603429 36.571429-37.156572 36.571429z m0-256a36.937143 36.937143 0 0 1-37.229714-36.571429v-73.142857c0-20.187429 16.676571-36.571429 37.229714-36.571429s37.156571 16.384 37.156572 36.571429v73.142857c0 20.187429-16.603429 36.571429-37.156572 36.571429zM279.183647 621.714286a36.937143 36.937143 0 0 1-37.229715-36.571429V512c0-20.187429 16.676571-36.571429 37.229715-36.571429s37.229714 16.384 37.229714 36.571429v73.142857c0 20.187429-16.676571 36.571429-37.229714 36.571429z m0-256a36.937143 36.937143 0 0 1-37.229715-36.571429v-73.142857c0-20.187429 16.676571-36.571429 37.229715-36.571429s37.229714 16.384 37.229714 36.571429v73.142857c0 20.187429-16.676571 36.571429-37.229714 36.571429z" p-id="11044" fill="#1980ff"></path></svg>